G04 EAGLE Gerber RS-274X export*
G75*
%MOMM*%
%FSLAX34Y34*%
%LPD*%
%INSolderpaste Top*%
%IPPOS*%
%AMOC8*
5,1,8,0,0,1.08239X$1,22.5*%
G01*
%ADD10R,2.000000X1.200000*%
%ADD11R,1.350000X0.600000*%
%ADD12R,0.600000X0.600000*%
%ADD13R,0.600000X1.200000*%
%ADD14C,0.300000*%
%ADD15R,3.200000X2.500000*%
%ADD16R,0.300000X0.660000*%
%ADD17R,0.900000X0.800000*%
%ADD18R,0.630000X0.830000*%


D10*
X239950Y99000D03*
X239950Y155000D03*
D11*
X203200Y112000D03*
X203200Y122000D03*
X203200Y132000D03*
X203200Y142000D03*
D10*
X14050Y155000D03*
X14050Y99000D03*
D11*
X50800Y142000D03*
X50800Y132000D03*
X50800Y122000D03*
X50800Y112000D03*
D12*
X185420Y92630D03*
X185420Y82630D03*
X242824Y79295D03*
X242824Y69295D03*
X229768Y69295D03*
X229768Y79295D03*
X71878Y45314D03*
X61878Y45314D03*
D13*
X165100Y91500D03*
X152400Y91500D03*
X139700Y91500D03*
X127000Y91500D03*
X114300Y91500D03*
X101600Y91500D03*
X88900Y91500D03*
X88900Y35500D03*
X101600Y35500D03*
X114300Y35500D03*
X127000Y35500D03*
X139700Y35500D03*
X152400Y35500D03*
X165100Y35500D03*
D12*
X28575Y74850D03*
X28575Y64850D03*
D14*
X44125Y65215D02*
X51125Y65215D01*
X51125Y58215D01*
X44125Y58215D01*
X44125Y65215D01*
X44125Y61065D02*
X51125Y61065D01*
X51125Y63915D02*
X44125Y63915D01*
X44125Y82755D02*
X51125Y82755D01*
X51125Y75755D01*
X44125Y75755D01*
X44125Y82755D01*
X44125Y78605D02*
X51125Y78605D01*
X51125Y81455D02*
X44125Y81455D01*
D15*
X167000Y152400D03*
X87000Y152400D03*
D12*
X170815Y110650D03*
X170815Y120650D03*
D16*
X180901Y219095D03*
X187401Y237495D03*
X193901Y237495D03*
X180901Y237495D03*
X187401Y219095D03*
X193901Y219095D03*
D17*
X11590Y194920D03*
X11590Y175920D03*
X32590Y185420D03*
D12*
X48659Y164440D03*
X38659Y164440D03*
D16*
X75415Y197810D03*
X81915Y216210D03*
X88415Y216210D03*
X75415Y216210D03*
X81915Y197810D03*
X88415Y197810D03*
D12*
X182880Y110650D03*
X182880Y120650D03*
X81585Y111920D03*
X81585Y121920D03*
X70536Y111920D03*
X70536Y121920D03*
X240835Y172212D03*
X230835Y172212D03*
X185936Y189687D03*
X195936Y189687D03*
X185885Y204470D03*
X195885Y204470D03*
D14*
X51125Y190055D02*
X44125Y190055D01*
X44125Y197055D01*
X51125Y197055D01*
X51125Y190055D01*
X51125Y192905D02*
X44125Y192905D01*
X44125Y195755D02*
X51125Y195755D01*
X51125Y172515D02*
X44125Y172515D01*
X44125Y179515D01*
X51125Y179515D01*
X51125Y172515D01*
X51125Y175365D02*
X44125Y175365D01*
X44125Y178215D02*
X51125Y178215D01*
D12*
X59080Y242668D03*
X59080Y232668D03*
D18*
X190379Y171907D03*
X213379Y171907D03*
D12*
X61904Y34646D03*
X71904Y34646D03*
D10*
X499030Y99000D03*
X499030Y155000D03*
D11*
X462280Y112000D03*
X462280Y122000D03*
X462280Y132000D03*
X462280Y142000D03*
D10*
X273130Y155000D03*
X273130Y99000D03*
D11*
X309880Y142000D03*
X309880Y132000D03*
X309880Y122000D03*
X309880Y112000D03*
D12*
X444500Y92630D03*
X444500Y82630D03*
X501904Y79295D03*
X501904Y69295D03*
X488848Y69295D03*
X488848Y79295D03*
X330958Y45314D03*
X320958Y45314D03*
D13*
X424180Y91500D03*
X411480Y91500D03*
X398780Y91500D03*
X386080Y91500D03*
X373380Y91500D03*
X360680Y91500D03*
X347980Y91500D03*
X347980Y35500D03*
X360680Y35500D03*
X373380Y35500D03*
X386080Y35500D03*
X398780Y35500D03*
X411480Y35500D03*
X424180Y35500D03*
D12*
X287655Y74850D03*
X287655Y64850D03*
D14*
X303205Y65215D02*
X310205Y65215D01*
X310205Y58215D01*
X303205Y58215D01*
X303205Y65215D01*
X303205Y61065D02*
X310205Y61065D01*
X310205Y63915D02*
X303205Y63915D01*
X303205Y82755D02*
X310205Y82755D01*
X310205Y75755D01*
X303205Y75755D01*
X303205Y82755D01*
X303205Y78605D02*
X310205Y78605D01*
X310205Y81455D02*
X303205Y81455D01*
D15*
X426080Y152400D03*
X346080Y152400D03*
D12*
X429895Y110650D03*
X429895Y120650D03*
D16*
X439981Y219095D03*
X446481Y237495D03*
X452981Y237495D03*
X439981Y237495D03*
X446481Y219095D03*
X452981Y219095D03*
D17*
X270670Y194920D03*
X270670Y175920D03*
X291670Y185420D03*
D12*
X307739Y164440D03*
X297739Y164440D03*
D16*
X334495Y197810D03*
X340995Y216210D03*
X347495Y216210D03*
X334495Y216210D03*
X340995Y197810D03*
X347495Y197810D03*
D12*
X441960Y110650D03*
X441960Y120650D03*
X340665Y111920D03*
X340665Y121920D03*
X329616Y111920D03*
X329616Y121920D03*
X499915Y172212D03*
X489915Y172212D03*
X445016Y189687D03*
X455016Y189687D03*
X444965Y204470D03*
X454965Y204470D03*
D14*
X310205Y190055D02*
X303205Y190055D01*
X303205Y197055D01*
X310205Y197055D01*
X310205Y190055D01*
X310205Y192905D02*
X303205Y192905D01*
X303205Y195755D02*
X310205Y195755D01*
X310205Y172515D02*
X303205Y172515D01*
X303205Y179515D01*
X310205Y179515D01*
X310205Y172515D01*
X310205Y175365D02*
X303205Y175365D01*
X303205Y178215D02*
X310205Y178215D01*
D12*
X318160Y242668D03*
X318160Y232668D03*
D18*
X449459Y171907D03*
X472459Y171907D03*
D12*
X320984Y34646D03*
X330984Y34646D03*
D10*
X758110Y99000D03*
X758110Y155000D03*
D11*
X721360Y112000D03*
X721360Y122000D03*
X721360Y132000D03*
X721360Y142000D03*
D10*
X532210Y155000D03*
X532210Y99000D03*
D11*
X568960Y142000D03*
X568960Y132000D03*
X568960Y122000D03*
X568960Y112000D03*
D12*
X703580Y92630D03*
X703580Y82630D03*
X760984Y79295D03*
X760984Y69295D03*
X747928Y69295D03*
X747928Y79295D03*
X590038Y45314D03*
X580038Y45314D03*
D13*
X683260Y91500D03*
X670560Y91500D03*
X657860Y91500D03*
X645160Y91500D03*
X632460Y91500D03*
X619760Y91500D03*
X607060Y91500D03*
X607060Y35500D03*
X619760Y35500D03*
X632460Y35500D03*
X645160Y35500D03*
X657860Y35500D03*
X670560Y35500D03*
X683260Y35500D03*
D12*
X546735Y74850D03*
X546735Y64850D03*
D14*
X562285Y65215D02*
X569285Y65215D01*
X569285Y58215D01*
X562285Y58215D01*
X562285Y65215D01*
X562285Y61065D02*
X569285Y61065D01*
X569285Y63915D02*
X562285Y63915D01*
X562285Y82755D02*
X569285Y82755D01*
X569285Y75755D01*
X562285Y75755D01*
X562285Y82755D01*
X562285Y78605D02*
X569285Y78605D01*
X569285Y81455D02*
X562285Y81455D01*
D15*
X685160Y152400D03*
X605160Y152400D03*
D12*
X688975Y110650D03*
X688975Y120650D03*
D16*
X699061Y219095D03*
X705561Y237495D03*
X712061Y237495D03*
X699061Y237495D03*
X705561Y219095D03*
X712061Y219095D03*
D17*
X529750Y194920D03*
X529750Y175920D03*
X550750Y185420D03*
D12*
X566819Y164440D03*
X556819Y164440D03*
D16*
X593575Y197810D03*
X600075Y216210D03*
X606575Y216210D03*
X593575Y216210D03*
X600075Y197810D03*
X606575Y197810D03*
D12*
X701040Y110650D03*
X701040Y120650D03*
X599745Y111920D03*
X599745Y121920D03*
X588696Y111920D03*
X588696Y121920D03*
X758995Y172212D03*
X748995Y172212D03*
X704096Y189687D03*
X714096Y189687D03*
X704045Y204470D03*
X714045Y204470D03*
D14*
X569285Y190055D02*
X562285Y190055D01*
X562285Y197055D01*
X569285Y197055D01*
X569285Y190055D01*
X569285Y192905D02*
X562285Y192905D01*
X562285Y195755D02*
X569285Y195755D01*
X569285Y172515D02*
X562285Y172515D01*
X562285Y179515D01*
X569285Y179515D01*
X569285Y172515D01*
X569285Y175365D02*
X562285Y175365D01*
X562285Y178215D02*
X569285Y178215D01*
D12*
X577240Y242668D03*
X577240Y232668D03*
D18*
X708539Y171907D03*
X731539Y171907D03*
D12*
X580064Y34646D03*
X590064Y34646D03*
D10*
X1017190Y99000D03*
X1017190Y155000D03*
D11*
X980440Y112000D03*
X980440Y122000D03*
X980440Y132000D03*
X980440Y142000D03*
D10*
X791290Y155000D03*
X791290Y99000D03*
D11*
X828040Y142000D03*
X828040Y132000D03*
X828040Y122000D03*
X828040Y112000D03*
D12*
X962660Y92630D03*
X962660Y82630D03*
X1020064Y79295D03*
X1020064Y69295D03*
X1007008Y69295D03*
X1007008Y79295D03*
X849118Y45314D03*
X839118Y45314D03*
D13*
X942340Y91500D03*
X929640Y91500D03*
X916940Y91500D03*
X904240Y91500D03*
X891540Y91500D03*
X878840Y91500D03*
X866140Y91500D03*
X866140Y35500D03*
X878840Y35500D03*
X891540Y35500D03*
X904240Y35500D03*
X916940Y35500D03*
X929640Y35500D03*
X942340Y35500D03*
D12*
X805815Y74850D03*
X805815Y64850D03*
D14*
X821365Y65215D02*
X828365Y65215D01*
X828365Y58215D01*
X821365Y58215D01*
X821365Y65215D01*
X821365Y61065D02*
X828365Y61065D01*
X828365Y63915D02*
X821365Y63915D01*
X821365Y82755D02*
X828365Y82755D01*
X828365Y75755D01*
X821365Y75755D01*
X821365Y82755D01*
X821365Y78605D02*
X828365Y78605D01*
X828365Y81455D02*
X821365Y81455D01*
D15*
X944240Y152400D03*
X864240Y152400D03*
D12*
X948055Y110650D03*
X948055Y120650D03*
D16*
X958141Y219095D03*
X964641Y237495D03*
X971141Y237495D03*
X958141Y237495D03*
X964641Y219095D03*
X971141Y219095D03*
D17*
X788830Y194920D03*
X788830Y175920D03*
X809830Y185420D03*
D12*
X825899Y164440D03*
X815899Y164440D03*
D16*
X852655Y197810D03*
X859155Y216210D03*
X865655Y216210D03*
X852655Y216210D03*
X859155Y197810D03*
X865655Y197810D03*
D12*
X960120Y110650D03*
X960120Y120650D03*
X858825Y111920D03*
X858825Y121920D03*
X847776Y111920D03*
X847776Y121920D03*
X1018075Y172212D03*
X1008075Y172212D03*
X963176Y189687D03*
X973176Y189687D03*
X963125Y204470D03*
X973125Y204470D03*
D14*
X828365Y190055D02*
X821365Y190055D01*
X821365Y197055D01*
X828365Y197055D01*
X828365Y190055D01*
X828365Y192905D02*
X821365Y192905D01*
X821365Y195755D02*
X828365Y195755D01*
X828365Y172515D02*
X821365Y172515D01*
X821365Y179515D01*
X828365Y179515D01*
X828365Y172515D01*
X828365Y175365D02*
X821365Y175365D01*
X821365Y178215D02*
X828365Y178215D01*
D12*
X836320Y242668D03*
X836320Y232668D03*
D18*
X967619Y171907D03*
X990619Y171907D03*
D12*
X839144Y34646D03*
X849144Y34646D03*
D10*
X1276270Y99000D03*
X1276270Y155000D03*
D11*
X1239520Y112000D03*
X1239520Y122000D03*
X1239520Y132000D03*
X1239520Y142000D03*
D10*
X1050370Y155000D03*
X1050370Y99000D03*
D11*
X1087120Y142000D03*
X1087120Y132000D03*
X1087120Y122000D03*
X1087120Y112000D03*
D12*
X1221740Y92630D03*
X1221740Y82630D03*
X1279144Y79295D03*
X1279144Y69295D03*
X1266088Y69295D03*
X1266088Y79295D03*
X1108198Y45314D03*
X1098198Y45314D03*
D13*
X1201420Y91500D03*
X1188720Y91500D03*
X1176020Y91500D03*
X1163320Y91500D03*
X1150620Y91500D03*
X1137920Y91500D03*
X1125220Y91500D03*
X1125220Y35500D03*
X1137920Y35500D03*
X1150620Y35500D03*
X1163320Y35500D03*
X1176020Y35500D03*
X1188720Y35500D03*
X1201420Y35500D03*
D12*
X1064895Y74850D03*
X1064895Y64850D03*
D14*
X1080445Y65215D02*
X1087445Y65215D01*
X1087445Y58215D01*
X1080445Y58215D01*
X1080445Y65215D01*
X1080445Y61065D02*
X1087445Y61065D01*
X1087445Y63915D02*
X1080445Y63915D01*
X1080445Y82755D02*
X1087445Y82755D01*
X1087445Y75755D01*
X1080445Y75755D01*
X1080445Y82755D01*
X1080445Y78605D02*
X1087445Y78605D01*
X1087445Y81455D02*
X1080445Y81455D01*
D15*
X1203320Y152400D03*
X1123320Y152400D03*
D12*
X1207135Y110650D03*
X1207135Y120650D03*
D16*
X1217221Y219095D03*
X1223721Y237495D03*
X1230221Y237495D03*
X1217221Y237495D03*
X1223721Y219095D03*
X1230221Y219095D03*
D17*
X1047910Y194920D03*
X1047910Y175920D03*
X1068910Y185420D03*
D12*
X1084979Y164440D03*
X1074979Y164440D03*
D16*
X1111735Y197810D03*
X1118235Y216210D03*
X1124735Y216210D03*
X1111735Y216210D03*
X1118235Y197810D03*
X1124735Y197810D03*
D12*
X1219200Y110650D03*
X1219200Y120650D03*
X1117905Y111920D03*
X1117905Y121920D03*
X1106856Y111920D03*
X1106856Y121920D03*
X1277155Y172212D03*
X1267155Y172212D03*
X1222256Y189687D03*
X1232256Y189687D03*
X1222205Y204470D03*
X1232205Y204470D03*
D14*
X1087445Y190055D02*
X1080445Y190055D01*
X1080445Y197055D01*
X1087445Y197055D01*
X1087445Y190055D01*
X1087445Y192905D02*
X1080445Y192905D01*
X1080445Y195755D02*
X1087445Y195755D01*
X1087445Y172515D02*
X1080445Y172515D01*
X1080445Y179515D01*
X1087445Y179515D01*
X1087445Y172515D01*
X1087445Y175365D02*
X1080445Y175365D01*
X1080445Y178215D02*
X1087445Y178215D01*
D12*
X1095400Y242668D03*
X1095400Y232668D03*
D18*
X1226699Y171907D03*
X1249699Y171907D03*
D12*
X1098224Y34646D03*
X1108224Y34646D03*
D10*
X1535350Y99000D03*
X1535350Y155000D03*
D11*
X1498600Y112000D03*
X1498600Y122000D03*
X1498600Y132000D03*
X1498600Y142000D03*
D10*
X1309450Y155000D03*
X1309450Y99000D03*
D11*
X1346200Y142000D03*
X1346200Y132000D03*
X1346200Y122000D03*
X1346200Y112000D03*
D12*
X1480820Y92630D03*
X1480820Y82630D03*
X1538224Y79295D03*
X1538224Y69295D03*
X1525168Y69295D03*
X1525168Y79295D03*
X1367278Y45314D03*
X1357278Y45314D03*
D13*
X1460500Y91500D03*
X1447800Y91500D03*
X1435100Y91500D03*
X1422400Y91500D03*
X1409700Y91500D03*
X1397000Y91500D03*
X1384300Y91500D03*
X1384300Y35500D03*
X1397000Y35500D03*
X1409700Y35500D03*
X1422400Y35500D03*
X1435100Y35500D03*
X1447800Y35500D03*
X1460500Y35500D03*
D12*
X1323975Y74850D03*
X1323975Y64850D03*
D14*
X1339525Y65215D02*
X1346525Y65215D01*
X1346525Y58215D01*
X1339525Y58215D01*
X1339525Y65215D01*
X1339525Y61065D02*
X1346525Y61065D01*
X1346525Y63915D02*
X1339525Y63915D01*
X1339525Y82755D02*
X1346525Y82755D01*
X1346525Y75755D01*
X1339525Y75755D01*
X1339525Y82755D01*
X1339525Y78605D02*
X1346525Y78605D01*
X1346525Y81455D02*
X1339525Y81455D01*
D15*
X1462400Y152400D03*
X1382400Y152400D03*
D12*
X1466215Y110650D03*
X1466215Y120650D03*
D16*
X1476301Y219095D03*
X1482801Y237495D03*
X1489301Y237495D03*
X1476301Y237495D03*
X1482801Y219095D03*
X1489301Y219095D03*
D17*
X1306990Y194920D03*
X1306990Y175920D03*
X1327990Y185420D03*
D12*
X1344059Y164440D03*
X1334059Y164440D03*
D16*
X1370815Y197810D03*
X1377315Y216210D03*
X1383815Y216210D03*
X1370815Y216210D03*
X1377315Y197810D03*
X1383815Y197810D03*
D12*
X1478280Y110650D03*
X1478280Y120650D03*
X1376985Y111920D03*
X1376985Y121920D03*
X1365936Y111920D03*
X1365936Y121920D03*
X1536235Y172212D03*
X1526235Y172212D03*
X1481336Y189687D03*
X1491336Y189687D03*
X1481285Y204470D03*
X1491285Y204470D03*
D14*
X1346525Y190055D02*
X1339525Y190055D01*
X1339525Y197055D01*
X1346525Y197055D01*
X1346525Y190055D01*
X1346525Y192905D02*
X1339525Y192905D01*
X1339525Y195755D02*
X1346525Y195755D01*
X1346525Y172515D02*
X1339525Y172515D01*
X1339525Y179515D01*
X1346525Y179515D01*
X1346525Y172515D01*
X1346525Y175365D02*
X1339525Y175365D01*
X1339525Y178215D02*
X1346525Y178215D01*
D12*
X1354480Y242668D03*
X1354480Y232668D03*
D18*
X1485779Y171907D03*
X1508779Y171907D03*
D12*
X1357304Y34646D03*
X1367304Y34646D03*
D10*
X239950Y358080D03*
X239950Y414080D03*
D11*
X203200Y371080D03*
X203200Y381080D03*
X203200Y391080D03*
X203200Y401080D03*
D10*
X14050Y414080D03*
X14050Y358080D03*
D11*
X50800Y401080D03*
X50800Y391080D03*
X50800Y381080D03*
X50800Y371080D03*
D12*
X185420Y351710D03*
X185420Y341710D03*
X242824Y338375D03*
X242824Y328375D03*
X229768Y328375D03*
X229768Y338375D03*
X71878Y304394D03*
X61878Y304394D03*
D13*
X165100Y350580D03*
X152400Y350580D03*
X139700Y350580D03*
X127000Y350580D03*
X114300Y350580D03*
X101600Y350580D03*
X88900Y350580D03*
X88900Y294580D03*
X101600Y294580D03*
X114300Y294580D03*
X127000Y294580D03*
X139700Y294580D03*
X152400Y294580D03*
X165100Y294580D03*
D12*
X28575Y333930D03*
X28575Y323930D03*
D14*
X44125Y324295D02*
X51125Y324295D01*
X51125Y317295D01*
X44125Y317295D01*
X44125Y324295D01*
X44125Y320145D02*
X51125Y320145D01*
X51125Y322995D02*
X44125Y322995D01*
X44125Y341835D02*
X51125Y341835D01*
X51125Y334835D01*
X44125Y334835D01*
X44125Y341835D01*
X44125Y337685D02*
X51125Y337685D01*
X51125Y340535D02*
X44125Y340535D01*
D15*
X167000Y411480D03*
X87000Y411480D03*
D12*
X170815Y369730D03*
X170815Y379730D03*
D16*
X180901Y478175D03*
X187401Y496575D03*
X193901Y496575D03*
X180901Y496575D03*
X187401Y478175D03*
X193901Y478175D03*
D17*
X11590Y454000D03*
X11590Y435000D03*
X32590Y444500D03*
D12*
X48659Y423520D03*
X38659Y423520D03*
D16*
X75415Y456890D03*
X81915Y475290D03*
X88415Y475290D03*
X75415Y475290D03*
X81915Y456890D03*
X88415Y456890D03*
D12*
X182880Y369730D03*
X182880Y379730D03*
X81585Y371000D03*
X81585Y381000D03*
X70536Y371000D03*
X70536Y381000D03*
X240835Y431292D03*
X230835Y431292D03*
X185936Y448767D03*
X195936Y448767D03*
X185885Y463550D03*
X195885Y463550D03*
D14*
X51125Y449135D02*
X44125Y449135D01*
X44125Y456135D01*
X51125Y456135D01*
X51125Y449135D01*
X51125Y451985D02*
X44125Y451985D01*
X44125Y454835D02*
X51125Y454835D01*
X51125Y431595D02*
X44125Y431595D01*
X44125Y438595D01*
X51125Y438595D01*
X51125Y431595D01*
X51125Y434445D02*
X44125Y434445D01*
X44125Y437295D02*
X51125Y437295D01*
D12*
X59080Y501748D03*
X59080Y491748D03*
D18*
X190379Y430987D03*
X213379Y430987D03*
D12*
X61904Y293726D03*
X71904Y293726D03*
D10*
X499030Y358080D03*
X499030Y414080D03*
D11*
X462280Y371080D03*
X462280Y381080D03*
X462280Y391080D03*
X462280Y401080D03*
D10*
X273130Y414080D03*
X273130Y358080D03*
D11*
X309880Y401080D03*
X309880Y391080D03*
X309880Y381080D03*
X309880Y371080D03*
D12*
X444500Y351710D03*
X444500Y341710D03*
X501904Y338375D03*
X501904Y328375D03*
X488848Y328375D03*
X488848Y338375D03*
X330958Y304394D03*
X320958Y304394D03*
D13*
X424180Y350580D03*
X411480Y350580D03*
X398780Y350580D03*
X386080Y350580D03*
X373380Y350580D03*
X360680Y350580D03*
X347980Y350580D03*
X347980Y294580D03*
X360680Y294580D03*
X373380Y294580D03*
X386080Y294580D03*
X398780Y294580D03*
X411480Y294580D03*
X424180Y294580D03*
D12*
X287655Y333930D03*
X287655Y323930D03*
D14*
X303205Y324295D02*
X310205Y324295D01*
X310205Y317295D01*
X303205Y317295D01*
X303205Y324295D01*
X303205Y320145D02*
X310205Y320145D01*
X310205Y322995D02*
X303205Y322995D01*
X303205Y341835D02*
X310205Y341835D01*
X310205Y334835D01*
X303205Y334835D01*
X303205Y341835D01*
X303205Y337685D02*
X310205Y337685D01*
X310205Y340535D02*
X303205Y340535D01*
D15*
X426080Y411480D03*
X346080Y411480D03*
D12*
X429895Y369730D03*
X429895Y379730D03*
D16*
X439981Y478175D03*
X446481Y496575D03*
X452981Y496575D03*
X439981Y496575D03*
X446481Y478175D03*
X452981Y478175D03*
D17*
X270670Y454000D03*
X270670Y435000D03*
X291670Y444500D03*
D12*
X307739Y423520D03*
X297739Y423520D03*
D16*
X334495Y456890D03*
X340995Y475290D03*
X347495Y475290D03*
X334495Y475290D03*
X340995Y456890D03*
X347495Y456890D03*
D12*
X441960Y369730D03*
X441960Y379730D03*
X340665Y371000D03*
X340665Y381000D03*
X329616Y371000D03*
X329616Y381000D03*
X499915Y431292D03*
X489915Y431292D03*
X445016Y448767D03*
X455016Y448767D03*
X444965Y463550D03*
X454965Y463550D03*
D14*
X310205Y449135D02*
X303205Y449135D01*
X303205Y456135D01*
X310205Y456135D01*
X310205Y449135D01*
X310205Y451985D02*
X303205Y451985D01*
X303205Y454835D02*
X310205Y454835D01*
X310205Y431595D02*
X303205Y431595D01*
X303205Y438595D01*
X310205Y438595D01*
X310205Y431595D01*
X310205Y434445D02*
X303205Y434445D01*
X303205Y437295D02*
X310205Y437295D01*
D12*
X318160Y501748D03*
X318160Y491748D03*
D18*
X449459Y430987D03*
X472459Y430987D03*
D12*
X320984Y293726D03*
X330984Y293726D03*
D10*
X758110Y358080D03*
X758110Y414080D03*
D11*
X721360Y371080D03*
X721360Y381080D03*
X721360Y391080D03*
X721360Y401080D03*
D10*
X532210Y414080D03*
X532210Y358080D03*
D11*
X568960Y401080D03*
X568960Y391080D03*
X568960Y381080D03*
X568960Y371080D03*
D12*
X703580Y351710D03*
X703580Y341710D03*
X760984Y338375D03*
X760984Y328375D03*
X747928Y328375D03*
X747928Y338375D03*
X590038Y304394D03*
X580038Y304394D03*
D13*
X683260Y350580D03*
X670560Y350580D03*
X657860Y350580D03*
X645160Y350580D03*
X632460Y350580D03*
X619760Y350580D03*
X607060Y350580D03*
X607060Y294580D03*
X619760Y294580D03*
X632460Y294580D03*
X645160Y294580D03*
X657860Y294580D03*
X670560Y294580D03*
X683260Y294580D03*
D12*
X546735Y333930D03*
X546735Y323930D03*
D14*
X562285Y324295D02*
X569285Y324295D01*
X569285Y317295D01*
X562285Y317295D01*
X562285Y324295D01*
X562285Y320145D02*
X569285Y320145D01*
X569285Y322995D02*
X562285Y322995D01*
X562285Y341835D02*
X569285Y341835D01*
X569285Y334835D01*
X562285Y334835D01*
X562285Y341835D01*
X562285Y337685D02*
X569285Y337685D01*
X569285Y340535D02*
X562285Y340535D01*
D15*
X685160Y411480D03*
X605160Y411480D03*
D12*
X688975Y369730D03*
X688975Y379730D03*
D16*
X699061Y478175D03*
X705561Y496575D03*
X712061Y496575D03*
X699061Y496575D03*
X705561Y478175D03*
X712061Y478175D03*
D17*
X529750Y454000D03*
X529750Y435000D03*
X550750Y444500D03*
D12*
X566819Y423520D03*
X556819Y423520D03*
D16*
X593575Y456890D03*
X600075Y475290D03*
X606575Y475290D03*
X593575Y475290D03*
X600075Y456890D03*
X606575Y456890D03*
D12*
X701040Y369730D03*
X701040Y379730D03*
X599745Y371000D03*
X599745Y381000D03*
X588696Y371000D03*
X588696Y381000D03*
X758995Y431292D03*
X748995Y431292D03*
X704096Y448767D03*
X714096Y448767D03*
X704045Y463550D03*
X714045Y463550D03*
D14*
X569285Y449135D02*
X562285Y449135D01*
X562285Y456135D01*
X569285Y456135D01*
X569285Y449135D01*
X569285Y451985D02*
X562285Y451985D01*
X562285Y454835D02*
X569285Y454835D01*
X569285Y431595D02*
X562285Y431595D01*
X562285Y438595D01*
X569285Y438595D01*
X569285Y431595D01*
X569285Y434445D02*
X562285Y434445D01*
X562285Y437295D02*
X569285Y437295D01*
D12*
X577240Y501748D03*
X577240Y491748D03*
D18*
X708539Y430987D03*
X731539Y430987D03*
D12*
X580064Y293726D03*
X590064Y293726D03*
D10*
X1017190Y358080D03*
X1017190Y414080D03*
D11*
X980440Y371080D03*
X980440Y381080D03*
X980440Y391080D03*
X980440Y401080D03*
D10*
X791290Y414080D03*
X791290Y358080D03*
D11*
X828040Y401080D03*
X828040Y391080D03*
X828040Y381080D03*
X828040Y371080D03*
D12*
X962660Y351710D03*
X962660Y341710D03*
X1020064Y338375D03*
X1020064Y328375D03*
X1007008Y328375D03*
X1007008Y338375D03*
X849118Y304394D03*
X839118Y304394D03*
D13*
X942340Y350580D03*
X929640Y350580D03*
X916940Y350580D03*
X904240Y350580D03*
X891540Y350580D03*
X878840Y350580D03*
X866140Y350580D03*
X866140Y294580D03*
X878840Y294580D03*
X891540Y294580D03*
X904240Y294580D03*
X916940Y294580D03*
X929640Y294580D03*
X942340Y294580D03*
D12*
X805815Y333930D03*
X805815Y323930D03*
D14*
X821365Y324295D02*
X828365Y324295D01*
X828365Y317295D01*
X821365Y317295D01*
X821365Y324295D01*
X821365Y320145D02*
X828365Y320145D01*
X828365Y322995D02*
X821365Y322995D01*
X821365Y341835D02*
X828365Y341835D01*
X828365Y334835D01*
X821365Y334835D01*
X821365Y341835D01*
X821365Y337685D02*
X828365Y337685D01*
X828365Y340535D02*
X821365Y340535D01*
D15*
X944240Y411480D03*
X864240Y411480D03*
D12*
X948055Y369730D03*
X948055Y379730D03*
D16*
X958141Y478175D03*
X964641Y496575D03*
X971141Y496575D03*
X958141Y496575D03*
X964641Y478175D03*
X971141Y478175D03*
D17*
X788830Y454000D03*
X788830Y435000D03*
X809830Y444500D03*
D12*
X825899Y423520D03*
X815899Y423520D03*
D16*
X852655Y456890D03*
X859155Y475290D03*
X865655Y475290D03*
X852655Y475290D03*
X859155Y456890D03*
X865655Y456890D03*
D12*
X960120Y369730D03*
X960120Y379730D03*
X858825Y371000D03*
X858825Y381000D03*
X847776Y371000D03*
X847776Y381000D03*
X1018075Y431292D03*
X1008075Y431292D03*
X963176Y448767D03*
X973176Y448767D03*
X963125Y463550D03*
X973125Y463550D03*
D14*
X828365Y449135D02*
X821365Y449135D01*
X821365Y456135D01*
X828365Y456135D01*
X828365Y449135D01*
X828365Y451985D02*
X821365Y451985D01*
X821365Y454835D02*
X828365Y454835D01*
X828365Y431595D02*
X821365Y431595D01*
X821365Y438595D01*
X828365Y438595D01*
X828365Y431595D01*
X828365Y434445D02*
X821365Y434445D01*
X821365Y437295D02*
X828365Y437295D01*
D12*
X836320Y501748D03*
X836320Y491748D03*
D18*
X967619Y430987D03*
X990619Y430987D03*
D12*
X839144Y293726D03*
X849144Y293726D03*
D10*
X1276270Y358080D03*
X1276270Y414080D03*
D11*
X1239520Y371080D03*
X1239520Y381080D03*
X1239520Y391080D03*
X1239520Y401080D03*
D10*
X1050370Y414080D03*
X1050370Y358080D03*
D11*
X1087120Y401080D03*
X1087120Y391080D03*
X1087120Y381080D03*
X1087120Y371080D03*
D12*
X1221740Y351710D03*
X1221740Y341710D03*
X1279144Y338375D03*
X1279144Y328375D03*
X1266088Y328375D03*
X1266088Y338375D03*
X1108198Y304394D03*
X1098198Y304394D03*
D13*
X1201420Y350580D03*
X1188720Y350580D03*
X1176020Y350580D03*
X1163320Y350580D03*
X1150620Y350580D03*
X1137920Y350580D03*
X1125220Y350580D03*
X1125220Y294580D03*
X1137920Y294580D03*
X1150620Y294580D03*
X1163320Y294580D03*
X1176020Y294580D03*
X1188720Y294580D03*
X1201420Y294580D03*
D12*
X1064895Y333930D03*
X1064895Y323930D03*
D14*
X1080445Y324295D02*
X1087445Y324295D01*
X1087445Y317295D01*
X1080445Y317295D01*
X1080445Y324295D01*
X1080445Y320145D02*
X1087445Y320145D01*
X1087445Y322995D02*
X1080445Y322995D01*
X1080445Y341835D02*
X1087445Y341835D01*
X1087445Y334835D01*
X1080445Y334835D01*
X1080445Y341835D01*
X1080445Y337685D02*
X1087445Y337685D01*
X1087445Y340535D02*
X1080445Y340535D01*
D15*
X1203320Y411480D03*
X1123320Y411480D03*
D12*
X1207135Y369730D03*
X1207135Y379730D03*
D16*
X1217221Y478175D03*
X1223721Y496575D03*
X1230221Y496575D03*
X1217221Y496575D03*
X1223721Y478175D03*
X1230221Y478175D03*
D17*
X1047910Y454000D03*
X1047910Y435000D03*
X1068910Y444500D03*
D12*
X1084979Y423520D03*
X1074979Y423520D03*
D16*
X1111735Y456890D03*
X1118235Y475290D03*
X1124735Y475290D03*
X1111735Y475290D03*
X1118235Y456890D03*
X1124735Y456890D03*
D12*
X1219200Y369730D03*
X1219200Y379730D03*
X1117905Y371000D03*
X1117905Y381000D03*
X1106856Y371000D03*
X1106856Y381000D03*
X1277155Y431292D03*
X1267155Y431292D03*
X1222256Y448767D03*
X1232256Y448767D03*
X1222205Y463550D03*
X1232205Y463550D03*
D14*
X1087445Y449135D02*
X1080445Y449135D01*
X1080445Y456135D01*
X1087445Y456135D01*
X1087445Y449135D01*
X1087445Y451985D02*
X1080445Y451985D01*
X1080445Y454835D02*
X1087445Y454835D01*
X1087445Y431595D02*
X1080445Y431595D01*
X1080445Y438595D01*
X1087445Y438595D01*
X1087445Y431595D01*
X1087445Y434445D02*
X1080445Y434445D01*
X1080445Y437295D02*
X1087445Y437295D01*
D12*
X1095400Y501748D03*
X1095400Y491748D03*
D18*
X1226699Y430987D03*
X1249699Y430987D03*
D12*
X1098224Y293726D03*
X1108224Y293726D03*
D10*
X1535350Y358080D03*
X1535350Y414080D03*
D11*
X1498600Y371080D03*
X1498600Y381080D03*
X1498600Y391080D03*
X1498600Y401080D03*
D10*
X1309450Y414080D03*
X1309450Y358080D03*
D11*
X1346200Y401080D03*
X1346200Y391080D03*
X1346200Y381080D03*
X1346200Y371080D03*
D12*
X1480820Y351710D03*
X1480820Y341710D03*
X1538224Y338375D03*
X1538224Y328375D03*
X1525168Y328375D03*
X1525168Y338375D03*
X1367278Y304394D03*
X1357278Y304394D03*
D13*
X1460500Y350580D03*
X1447800Y350580D03*
X1435100Y350580D03*
X1422400Y350580D03*
X1409700Y350580D03*
X1397000Y350580D03*
X1384300Y350580D03*
X1384300Y294580D03*
X1397000Y294580D03*
X1409700Y294580D03*
X1422400Y294580D03*
X1435100Y294580D03*
X1447800Y294580D03*
X1460500Y294580D03*
D12*
X1323975Y333930D03*
X1323975Y323930D03*
D14*
X1339525Y324295D02*
X1346525Y324295D01*
X1346525Y317295D01*
X1339525Y317295D01*
X1339525Y324295D01*
X1339525Y320145D02*
X1346525Y320145D01*
X1346525Y322995D02*
X1339525Y322995D01*
X1339525Y341835D02*
X1346525Y341835D01*
X1346525Y334835D01*
X1339525Y334835D01*
X1339525Y341835D01*
X1339525Y337685D02*
X1346525Y337685D01*
X1346525Y340535D02*
X1339525Y340535D01*
D15*
X1462400Y411480D03*
X1382400Y411480D03*
D12*
X1466215Y369730D03*
X1466215Y379730D03*
D16*
X1476301Y478175D03*
X1482801Y496575D03*
X1489301Y496575D03*
X1476301Y496575D03*
X1482801Y478175D03*
X1489301Y478175D03*
D17*
X1306990Y454000D03*
X1306990Y435000D03*
X1327990Y444500D03*
D12*
X1344059Y423520D03*
X1334059Y423520D03*
D16*
X1370815Y456890D03*
X1377315Y475290D03*
X1383815Y475290D03*
X1370815Y475290D03*
X1377315Y456890D03*
X1383815Y456890D03*
D12*
X1478280Y369730D03*
X1478280Y379730D03*
X1376985Y371000D03*
X1376985Y381000D03*
X1365936Y371000D03*
X1365936Y381000D03*
X1536235Y431292D03*
X1526235Y431292D03*
X1481336Y448767D03*
X1491336Y448767D03*
X1481285Y463550D03*
X1491285Y463550D03*
D14*
X1346525Y449135D02*
X1339525Y449135D01*
X1339525Y456135D01*
X1346525Y456135D01*
X1346525Y449135D01*
X1346525Y451985D02*
X1339525Y451985D01*
X1339525Y454835D02*
X1346525Y454835D01*
X1346525Y431595D02*
X1339525Y431595D01*
X1339525Y438595D01*
X1346525Y438595D01*
X1346525Y431595D01*
X1346525Y434445D02*
X1339525Y434445D01*
X1339525Y437295D02*
X1346525Y437295D01*
D12*
X1354480Y501748D03*
X1354480Y491748D03*
D18*
X1485779Y430987D03*
X1508779Y430987D03*
D12*
X1357304Y293726D03*
X1367304Y293726D03*
D10*
X239950Y617160D03*
X239950Y673160D03*
D11*
X203200Y630160D03*
X203200Y640160D03*
X203200Y650160D03*
X203200Y660160D03*
D10*
X14050Y673160D03*
X14050Y617160D03*
D11*
X50800Y660160D03*
X50800Y650160D03*
X50800Y640160D03*
X50800Y630160D03*
D12*
X185420Y610790D03*
X185420Y600790D03*
X242824Y597455D03*
X242824Y587455D03*
X229768Y587455D03*
X229768Y597455D03*
X71878Y563474D03*
X61878Y563474D03*
D13*
X165100Y609660D03*
X152400Y609660D03*
X139700Y609660D03*
X127000Y609660D03*
X114300Y609660D03*
X101600Y609660D03*
X88900Y609660D03*
X88900Y553660D03*
X101600Y553660D03*
X114300Y553660D03*
X127000Y553660D03*
X139700Y553660D03*
X152400Y553660D03*
X165100Y553660D03*
D12*
X28575Y593010D03*
X28575Y583010D03*
D14*
X44125Y583375D02*
X51125Y583375D01*
X51125Y576375D01*
X44125Y576375D01*
X44125Y583375D01*
X44125Y579225D02*
X51125Y579225D01*
X51125Y582075D02*
X44125Y582075D01*
X44125Y600915D02*
X51125Y600915D01*
X51125Y593915D01*
X44125Y593915D01*
X44125Y600915D01*
X44125Y596765D02*
X51125Y596765D01*
X51125Y599615D02*
X44125Y599615D01*
D15*
X167000Y670560D03*
X87000Y670560D03*
D12*
X170815Y628810D03*
X170815Y638810D03*
D16*
X180901Y737255D03*
X187401Y755655D03*
X193901Y755655D03*
X180901Y755655D03*
X187401Y737255D03*
X193901Y737255D03*
D17*
X11590Y713080D03*
X11590Y694080D03*
X32590Y703580D03*
D12*
X48659Y682600D03*
X38659Y682600D03*
D16*
X75415Y715970D03*
X81915Y734370D03*
X88415Y734370D03*
X75415Y734370D03*
X81915Y715970D03*
X88415Y715970D03*
D12*
X182880Y628810D03*
X182880Y638810D03*
X81585Y630080D03*
X81585Y640080D03*
X70536Y630080D03*
X70536Y640080D03*
X240835Y690372D03*
X230835Y690372D03*
X185936Y707847D03*
X195936Y707847D03*
X185885Y722630D03*
X195885Y722630D03*
D14*
X51125Y708215D02*
X44125Y708215D01*
X44125Y715215D01*
X51125Y715215D01*
X51125Y708215D01*
X51125Y711065D02*
X44125Y711065D01*
X44125Y713915D02*
X51125Y713915D01*
X51125Y690675D02*
X44125Y690675D01*
X44125Y697675D01*
X51125Y697675D01*
X51125Y690675D01*
X51125Y693525D02*
X44125Y693525D01*
X44125Y696375D02*
X51125Y696375D01*
D12*
X59080Y760828D03*
X59080Y750828D03*
D18*
X190379Y690067D03*
X213379Y690067D03*
D12*
X61904Y552806D03*
X71904Y552806D03*
D10*
X499030Y617160D03*
X499030Y673160D03*
D11*
X462280Y630160D03*
X462280Y640160D03*
X462280Y650160D03*
X462280Y660160D03*
D10*
X273130Y673160D03*
X273130Y617160D03*
D11*
X309880Y660160D03*
X309880Y650160D03*
X309880Y640160D03*
X309880Y630160D03*
D12*
X444500Y610790D03*
X444500Y600790D03*
X501904Y597455D03*
X501904Y587455D03*
X488848Y587455D03*
X488848Y597455D03*
X330958Y563474D03*
X320958Y563474D03*
D13*
X424180Y609660D03*
X411480Y609660D03*
X398780Y609660D03*
X386080Y609660D03*
X373380Y609660D03*
X360680Y609660D03*
X347980Y609660D03*
X347980Y553660D03*
X360680Y553660D03*
X373380Y553660D03*
X386080Y553660D03*
X398780Y553660D03*
X411480Y553660D03*
X424180Y553660D03*
D12*
X287655Y593010D03*
X287655Y583010D03*
D14*
X303205Y583375D02*
X310205Y583375D01*
X310205Y576375D01*
X303205Y576375D01*
X303205Y583375D01*
X303205Y579225D02*
X310205Y579225D01*
X310205Y582075D02*
X303205Y582075D01*
X303205Y600915D02*
X310205Y600915D01*
X310205Y593915D01*
X303205Y593915D01*
X303205Y600915D01*
X303205Y596765D02*
X310205Y596765D01*
X310205Y599615D02*
X303205Y599615D01*
D15*
X426080Y670560D03*
X346080Y670560D03*
D12*
X429895Y628810D03*
X429895Y638810D03*
D16*
X439981Y737255D03*
X446481Y755655D03*
X452981Y755655D03*
X439981Y755655D03*
X446481Y737255D03*
X452981Y737255D03*
D17*
X270670Y713080D03*
X270670Y694080D03*
X291670Y703580D03*
D12*
X307739Y682600D03*
X297739Y682600D03*
D16*
X334495Y715970D03*
X340995Y734370D03*
X347495Y734370D03*
X334495Y734370D03*
X340995Y715970D03*
X347495Y715970D03*
D12*
X441960Y628810D03*
X441960Y638810D03*
X340665Y630080D03*
X340665Y640080D03*
X329616Y630080D03*
X329616Y640080D03*
X499915Y690372D03*
X489915Y690372D03*
X445016Y707847D03*
X455016Y707847D03*
X444965Y722630D03*
X454965Y722630D03*
D14*
X310205Y708215D02*
X303205Y708215D01*
X303205Y715215D01*
X310205Y715215D01*
X310205Y708215D01*
X310205Y711065D02*
X303205Y711065D01*
X303205Y713915D02*
X310205Y713915D01*
X310205Y690675D02*
X303205Y690675D01*
X303205Y697675D01*
X310205Y697675D01*
X310205Y690675D01*
X310205Y693525D02*
X303205Y693525D01*
X303205Y696375D02*
X310205Y696375D01*
D12*
X318160Y760828D03*
X318160Y750828D03*
D18*
X449459Y690067D03*
X472459Y690067D03*
D12*
X320984Y552806D03*
X330984Y552806D03*
D10*
X758110Y617160D03*
X758110Y673160D03*
D11*
X721360Y630160D03*
X721360Y640160D03*
X721360Y650160D03*
X721360Y660160D03*
D10*
X532210Y673160D03*
X532210Y617160D03*
D11*
X568960Y660160D03*
X568960Y650160D03*
X568960Y640160D03*
X568960Y630160D03*
D12*
X703580Y610790D03*
X703580Y600790D03*
X760984Y597455D03*
X760984Y587455D03*
X747928Y587455D03*
X747928Y597455D03*
X590038Y563474D03*
X580038Y563474D03*
D13*
X683260Y609660D03*
X670560Y609660D03*
X657860Y609660D03*
X645160Y609660D03*
X632460Y609660D03*
X619760Y609660D03*
X607060Y609660D03*
X607060Y553660D03*
X619760Y553660D03*
X632460Y553660D03*
X645160Y553660D03*
X657860Y553660D03*
X670560Y553660D03*
X683260Y553660D03*
D12*
X546735Y593010D03*
X546735Y583010D03*
D14*
X562285Y583375D02*
X569285Y583375D01*
X569285Y576375D01*
X562285Y576375D01*
X562285Y583375D01*
X562285Y579225D02*
X569285Y579225D01*
X569285Y582075D02*
X562285Y582075D01*
X562285Y600915D02*
X569285Y600915D01*
X569285Y593915D01*
X562285Y593915D01*
X562285Y600915D01*
X562285Y596765D02*
X569285Y596765D01*
X569285Y599615D02*
X562285Y599615D01*
D15*
X685160Y670560D03*
X605160Y670560D03*
D12*
X688975Y628810D03*
X688975Y638810D03*
D16*
X699061Y737255D03*
X705561Y755655D03*
X712061Y755655D03*
X699061Y755655D03*
X705561Y737255D03*
X712061Y737255D03*
D17*
X529750Y713080D03*
X529750Y694080D03*
X550750Y703580D03*
D12*
X566819Y682600D03*
X556819Y682600D03*
D16*
X593575Y715970D03*
X600075Y734370D03*
X606575Y734370D03*
X593575Y734370D03*
X600075Y715970D03*
X606575Y715970D03*
D12*
X701040Y628810D03*
X701040Y638810D03*
X599745Y630080D03*
X599745Y640080D03*
X588696Y630080D03*
X588696Y640080D03*
X758995Y690372D03*
X748995Y690372D03*
X704096Y707847D03*
X714096Y707847D03*
X704045Y722630D03*
X714045Y722630D03*
D14*
X569285Y708215D02*
X562285Y708215D01*
X562285Y715215D01*
X569285Y715215D01*
X569285Y708215D01*
X569285Y711065D02*
X562285Y711065D01*
X562285Y713915D02*
X569285Y713915D01*
X569285Y690675D02*
X562285Y690675D01*
X562285Y697675D01*
X569285Y697675D01*
X569285Y690675D01*
X569285Y693525D02*
X562285Y693525D01*
X562285Y696375D02*
X569285Y696375D01*
D12*
X577240Y760828D03*
X577240Y750828D03*
D18*
X708539Y690067D03*
X731539Y690067D03*
D12*
X580064Y552806D03*
X590064Y552806D03*
D10*
X1017190Y617160D03*
X1017190Y673160D03*
D11*
X980440Y630160D03*
X980440Y640160D03*
X980440Y650160D03*
X980440Y660160D03*
D10*
X791290Y673160D03*
X791290Y617160D03*
D11*
X828040Y660160D03*
X828040Y650160D03*
X828040Y640160D03*
X828040Y630160D03*
D12*
X962660Y610790D03*
X962660Y600790D03*
X1020064Y597455D03*
X1020064Y587455D03*
X1007008Y587455D03*
X1007008Y597455D03*
X849118Y563474D03*
X839118Y563474D03*
D13*
X942340Y609660D03*
X929640Y609660D03*
X916940Y609660D03*
X904240Y609660D03*
X891540Y609660D03*
X878840Y609660D03*
X866140Y609660D03*
X866140Y553660D03*
X878840Y553660D03*
X891540Y553660D03*
X904240Y553660D03*
X916940Y553660D03*
X929640Y553660D03*
X942340Y553660D03*
D12*
X805815Y593010D03*
X805815Y583010D03*
D14*
X821365Y583375D02*
X828365Y583375D01*
X828365Y576375D01*
X821365Y576375D01*
X821365Y583375D01*
X821365Y579225D02*
X828365Y579225D01*
X828365Y582075D02*
X821365Y582075D01*
X821365Y600915D02*
X828365Y600915D01*
X828365Y593915D01*
X821365Y593915D01*
X821365Y600915D01*
X821365Y596765D02*
X828365Y596765D01*
X828365Y599615D02*
X821365Y599615D01*
D15*
X944240Y670560D03*
X864240Y670560D03*
D12*
X948055Y628810D03*
X948055Y638810D03*
D16*
X958141Y737255D03*
X964641Y755655D03*
X971141Y755655D03*
X958141Y755655D03*
X964641Y737255D03*
X971141Y737255D03*
D17*
X788830Y713080D03*
X788830Y694080D03*
X809830Y703580D03*
D12*
X825899Y682600D03*
X815899Y682600D03*
D16*
X852655Y715970D03*
X859155Y734370D03*
X865655Y734370D03*
X852655Y734370D03*
X859155Y715970D03*
X865655Y715970D03*
D12*
X960120Y628810D03*
X960120Y638810D03*
X858825Y630080D03*
X858825Y640080D03*
X847776Y630080D03*
X847776Y640080D03*
X1018075Y690372D03*
X1008075Y690372D03*
X963176Y707847D03*
X973176Y707847D03*
X963125Y722630D03*
X973125Y722630D03*
D14*
X828365Y708215D02*
X821365Y708215D01*
X821365Y715215D01*
X828365Y715215D01*
X828365Y708215D01*
X828365Y711065D02*
X821365Y711065D01*
X821365Y713915D02*
X828365Y713915D01*
X828365Y690675D02*
X821365Y690675D01*
X821365Y697675D01*
X828365Y697675D01*
X828365Y690675D01*
X828365Y693525D02*
X821365Y693525D01*
X821365Y696375D02*
X828365Y696375D01*
D12*
X836320Y760828D03*
X836320Y750828D03*
D18*
X967619Y690067D03*
X990619Y690067D03*
D12*
X839144Y552806D03*
X849144Y552806D03*
D10*
X1276270Y617160D03*
X1276270Y673160D03*
D11*
X1239520Y630160D03*
X1239520Y640160D03*
X1239520Y650160D03*
X1239520Y660160D03*
D10*
X1050370Y673160D03*
X1050370Y617160D03*
D11*
X1087120Y660160D03*
X1087120Y650160D03*
X1087120Y640160D03*
X1087120Y630160D03*
D12*
X1221740Y610790D03*
X1221740Y600790D03*
X1279144Y597455D03*
X1279144Y587455D03*
X1266088Y587455D03*
X1266088Y597455D03*
X1108198Y563474D03*
X1098198Y563474D03*
D13*
X1201420Y609660D03*
X1188720Y609660D03*
X1176020Y609660D03*
X1163320Y609660D03*
X1150620Y609660D03*
X1137920Y609660D03*
X1125220Y609660D03*
X1125220Y553660D03*
X1137920Y553660D03*
X1150620Y553660D03*
X1163320Y553660D03*
X1176020Y553660D03*
X1188720Y553660D03*
X1201420Y553660D03*
D12*
X1064895Y593010D03*
X1064895Y583010D03*
D14*
X1080445Y583375D02*
X1087445Y583375D01*
X1087445Y576375D01*
X1080445Y576375D01*
X1080445Y583375D01*
X1080445Y579225D02*
X1087445Y579225D01*
X1087445Y582075D02*
X1080445Y582075D01*
X1080445Y600915D02*
X1087445Y600915D01*
X1087445Y593915D01*
X1080445Y593915D01*
X1080445Y600915D01*
X1080445Y596765D02*
X1087445Y596765D01*
X1087445Y599615D02*
X1080445Y599615D01*
D15*
X1203320Y670560D03*
X1123320Y670560D03*
D12*
X1207135Y628810D03*
X1207135Y638810D03*
D16*
X1217221Y737255D03*
X1223721Y755655D03*
X1230221Y755655D03*
X1217221Y755655D03*
X1223721Y737255D03*
X1230221Y737255D03*
D17*
X1047910Y713080D03*
X1047910Y694080D03*
X1068910Y703580D03*
D12*
X1084979Y682600D03*
X1074979Y682600D03*
D16*
X1111735Y715970D03*
X1118235Y734370D03*
X1124735Y734370D03*
X1111735Y734370D03*
X1118235Y715970D03*
X1124735Y715970D03*
D12*
X1219200Y628810D03*
X1219200Y638810D03*
X1117905Y630080D03*
X1117905Y640080D03*
X1106856Y630080D03*
X1106856Y640080D03*
X1277155Y690372D03*
X1267155Y690372D03*
X1222256Y707847D03*
X1232256Y707847D03*
X1222205Y722630D03*
X1232205Y722630D03*
D14*
X1087445Y708215D02*
X1080445Y708215D01*
X1080445Y715215D01*
X1087445Y715215D01*
X1087445Y708215D01*
X1087445Y711065D02*
X1080445Y711065D01*
X1080445Y713915D02*
X1087445Y713915D01*
X1087445Y690675D02*
X1080445Y690675D01*
X1080445Y697675D01*
X1087445Y697675D01*
X1087445Y690675D01*
X1087445Y693525D02*
X1080445Y693525D01*
X1080445Y696375D02*
X1087445Y696375D01*
D12*
X1095400Y760828D03*
X1095400Y750828D03*
D18*
X1226699Y690067D03*
X1249699Y690067D03*
D12*
X1098224Y552806D03*
X1108224Y552806D03*
D10*
X1535350Y617160D03*
X1535350Y673160D03*
D11*
X1498600Y630160D03*
X1498600Y640160D03*
X1498600Y650160D03*
X1498600Y660160D03*
D10*
X1309450Y673160D03*
X1309450Y617160D03*
D11*
X1346200Y660160D03*
X1346200Y650160D03*
X1346200Y640160D03*
X1346200Y630160D03*
D12*
X1480820Y610790D03*
X1480820Y600790D03*
X1538224Y597455D03*
X1538224Y587455D03*
X1525168Y587455D03*
X1525168Y597455D03*
X1367278Y563474D03*
X1357278Y563474D03*
D13*
X1460500Y609660D03*
X1447800Y609660D03*
X1435100Y609660D03*
X1422400Y609660D03*
X1409700Y609660D03*
X1397000Y609660D03*
X1384300Y609660D03*
X1384300Y553660D03*
X1397000Y553660D03*
X1409700Y553660D03*
X1422400Y553660D03*
X1435100Y553660D03*
X1447800Y553660D03*
X1460500Y553660D03*
D12*
X1323975Y593010D03*
X1323975Y583010D03*
D14*
X1339525Y583375D02*
X1346525Y583375D01*
X1346525Y576375D01*
X1339525Y576375D01*
X1339525Y583375D01*
X1339525Y579225D02*
X1346525Y579225D01*
X1346525Y582075D02*
X1339525Y582075D01*
X1339525Y600915D02*
X1346525Y600915D01*
X1346525Y593915D01*
X1339525Y593915D01*
X1339525Y600915D01*
X1339525Y596765D02*
X1346525Y596765D01*
X1346525Y599615D02*
X1339525Y599615D01*
D15*
X1462400Y670560D03*
X1382400Y670560D03*
D12*
X1466215Y628810D03*
X1466215Y638810D03*
D16*
X1476301Y737255D03*
X1482801Y755655D03*
X1489301Y755655D03*
X1476301Y755655D03*
X1482801Y737255D03*
X1489301Y737255D03*
D17*
X1306990Y713080D03*
X1306990Y694080D03*
X1327990Y703580D03*
D12*
X1344059Y682600D03*
X1334059Y682600D03*
D16*
X1370815Y715970D03*
X1377315Y734370D03*
X1383815Y734370D03*
X1370815Y734370D03*
X1377315Y715970D03*
X1383815Y715970D03*
D12*
X1478280Y628810D03*
X1478280Y638810D03*
X1376985Y630080D03*
X1376985Y640080D03*
X1365936Y630080D03*
X1365936Y640080D03*
X1536235Y690372D03*
X1526235Y690372D03*
X1481336Y707847D03*
X1491336Y707847D03*
X1481285Y722630D03*
X1491285Y722630D03*
D14*
X1346525Y708215D02*
X1339525Y708215D01*
X1339525Y715215D01*
X1346525Y715215D01*
X1346525Y708215D01*
X1346525Y711065D02*
X1339525Y711065D01*
X1339525Y713915D02*
X1346525Y713915D01*
X1346525Y690675D02*
X1339525Y690675D01*
X1339525Y697675D01*
X1346525Y697675D01*
X1346525Y690675D01*
X1346525Y693525D02*
X1339525Y693525D01*
X1339525Y696375D02*
X1346525Y696375D01*
D12*
X1354480Y760828D03*
X1354480Y750828D03*
D18*
X1485779Y690067D03*
X1508779Y690067D03*
D12*
X1357304Y552806D03*
X1367304Y552806D03*
D10*
X239950Y876240D03*
X239950Y932240D03*
D11*
X203200Y889240D03*
X203200Y899240D03*
X203200Y909240D03*
X203200Y919240D03*
D10*
X14050Y932240D03*
X14050Y876240D03*
D11*
X50800Y919240D03*
X50800Y909240D03*
X50800Y899240D03*
X50800Y889240D03*
D12*
X185420Y869870D03*
X185420Y859870D03*
X242824Y856535D03*
X242824Y846535D03*
X229768Y846535D03*
X229768Y856535D03*
X71878Y822554D03*
X61878Y822554D03*
D13*
X165100Y868740D03*
X152400Y868740D03*
X139700Y868740D03*
X127000Y868740D03*
X114300Y868740D03*
X101600Y868740D03*
X88900Y868740D03*
X88900Y812740D03*
X101600Y812740D03*
X114300Y812740D03*
X127000Y812740D03*
X139700Y812740D03*
X152400Y812740D03*
X165100Y812740D03*
D12*
X28575Y852090D03*
X28575Y842090D03*
D14*
X44125Y842455D02*
X51125Y842455D01*
X51125Y835455D01*
X44125Y835455D01*
X44125Y842455D01*
X44125Y838305D02*
X51125Y838305D01*
X51125Y841155D02*
X44125Y841155D01*
X44125Y859995D02*
X51125Y859995D01*
X51125Y852995D01*
X44125Y852995D01*
X44125Y859995D01*
X44125Y855845D02*
X51125Y855845D01*
X51125Y858695D02*
X44125Y858695D01*
D15*
X167000Y929640D03*
X87000Y929640D03*
D12*
X170815Y887890D03*
X170815Y897890D03*
D16*
X180901Y996335D03*
X187401Y1014735D03*
X193901Y1014735D03*
X180901Y1014735D03*
X187401Y996335D03*
X193901Y996335D03*
D17*
X11590Y972160D03*
X11590Y953160D03*
X32590Y962660D03*
D12*
X48659Y941680D03*
X38659Y941680D03*
D16*
X75415Y975050D03*
X81915Y993450D03*
X88415Y993450D03*
X75415Y993450D03*
X81915Y975050D03*
X88415Y975050D03*
D12*
X182880Y887890D03*
X182880Y897890D03*
X81585Y889160D03*
X81585Y899160D03*
X70536Y889160D03*
X70536Y899160D03*
X240835Y949452D03*
X230835Y949452D03*
X185936Y966927D03*
X195936Y966927D03*
X185885Y981710D03*
X195885Y981710D03*
D14*
X51125Y967295D02*
X44125Y967295D01*
X44125Y974295D01*
X51125Y974295D01*
X51125Y967295D01*
X51125Y970145D02*
X44125Y970145D01*
X44125Y972995D02*
X51125Y972995D01*
X51125Y949755D02*
X44125Y949755D01*
X44125Y956755D01*
X51125Y956755D01*
X51125Y949755D01*
X51125Y952605D02*
X44125Y952605D01*
X44125Y955455D02*
X51125Y955455D01*
D12*
X59080Y1019908D03*
X59080Y1009908D03*
D18*
X190379Y949147D03*
X213379Y949147D03*
D12*
X61904Y811886D03*
X71904Y811886D03*
D10*
X499030Y876240D03*
X499030Y932240D03*
D11*
X462280Y889240D03*
X462280Y899240D03*
X462280Y909240D03*
X462280Y919240D03*
D10*
X273130Y932240D03*
X273130Y876240D03*
D11*
X309880Y919240D03*
X309880Y909240D03*
X309880Y899240D03*
X309880Y889240D03*
D12*
X444500Y869870D03*
X444500Y859870D03*
X501904Y856535D03*
X501904Y846535D03*
X488848Y846535D03*
X488848Y856535D03*
X330958Y822554D03*
X320958Y822554D03*
D13*
X424180Y868740D03*
X411480Y868740D03*
X398780Y868740D03*
X386080Y868740D03*
X373380Y868740D03*
X360680Y868740D03*
X347980Y868740D03*
X347980Y812740D03*
X360680Y812740D03*
X373380Y812740D03*
X386080Y812740D03*
X398780Y812740D03*
X411480Y812740D03*
X424180Y812740D03*
D12*
X287655Y852090D03*
X287655Y842090D03*
D14*
X303205Y842455D02*
X310205Y842455D01*
X310205Y835455D01*
X303205Y835455D01*
X303205Y842455D01*
X303205Y838305D02*
X310205Y838305D01*
X310205Y841155D02*
X303205Y841155D01*
X303205Y859995D02*
X310205Y859995D01*
X310205Y852995D01*
X303205Y852995D01*
X303205Y859995D01*
X303205Y855845D02*
X310205Y855845D01*
X310205Y858695D02*
X303205Y858695D01*
D15*
X426080Y929640D03*
X346080Y929640D03*
D12*
X429895Y887890D03*
X429895Y897890D03*
D16*
X439981Y996335D03*
X446481Y1014735D03*
X452981Y1014735D03*
X439981Y1014735D03*
X446481Y996335D03*
X452981Y996335D03*
D17*
X270670Y972160D03*
X270670Y953160D03*
X291670Y962660D03*
D12*
X307739Y941680D03*
X297739Y941680D03*
D16*
X334495Y975050D03*
X340995Y993450D03*
X347495Y993450D03*
X334495Y993450D03*
X340995Y975050D03*
X347495Y975050D03*
D12*
X441960Y887890D03*
X441960Y897890D03*
X340665Y889160D03*
X340665Y899160D03*
X329616Y889160D03*
X329616Y899160D03*
X499915Y949452D03*
X489915Y949452D03*
X445016Y966927D03*
X455016Y966927D03*
X444965Y981710D03*
X454965Y981710D03*
D14*
X310205Y967295D02*
X303205Y967295D01*
X303205Y974295D01*
X310205Y974295D01*
X310205Y967295D01*
X310205Y970145D02*
X303205Y970145D01*
X303205Y972995D02*
X310205Y972995D01*
X310205Y949755D02*
X303205Y949755D01*
X303205Y956755D01*
X310205Y956755D01*
X310205Y949755D01*
X310205Y952605D02*
X303205Y952605D01*
X303205Y955455D02*
X310205Y955455D01*
D12*
X318160Y1019908D03*
X318160Y1009908D03*
D18*
X449459Y949147D03*
X472459Y949147D03*
D12*
X320984Y811886D03*
X330984Y811886D03*
D10*
X758110Y876240D03*
X758110Y932240D03*
D11*
X721360Y889240D03*
X721360Y899240D03*
X721360Y909240D03*
X721360Y919240D03*
D10*
X532210Y932240D03*
X532210Y876240D03*
D11*
X568960Y919240D03*
X568960Y909240D03*
X568960Y899240D03*
X568960Y889240D03*
D12*
X703580Y869870D03*
X703580Y859870D03*
X760984Y856535D03*
X760984Y846535D03*
X747928Y846535D03*
X747928Y856535D03*
X590038Y822554D03*
X580038Y822554D03*
D13*
X683260Y868740D03*
X670560Y868740D03*
X657860Y868740D03*
X645160Y868740D03*
X632460Y868740D03*
X619760Y868740D03*
X607060Y868740D03*
X607060Y812740D03*
X619760Y812740D03*
X632460Y812740D03*
X645160Y812740D03*
X657860Y812740D03*
X670560Y812740D03*
X683260Y812740D03*
D12*
X546735Y852090D03*
X546735Y842090D03*
D14*
X562285Y842455D02*
X569285Y842455D01*
X569285Y835455D01*
X562285Y835455D01*
X562285Y842455D01*
X562285Y838305D02*
X569285Y838305D01*
X569285Y841155D02*
X562285Y841155D01*
X562285Y859995D02*
X569285Y859995D01*
X569285Y852995D01*
X562285Y852995D01*
X562285Y859995D01*
X562285Y855845D02*
X569285Y855845D01*
X569285Y858695D02*
X562285Y858695D01*
D15*
X685160Y929640D03*
X605160Y929640D03*
D12*
X688975Y887890D03*
X688975Y897890D03*
D16*
X699061Y996335D03*
X705561Y1014735D03*
X712061Y1014735D03*
X699061Y1014735D03*
X705561Y996335D03*
X712061Y996335D03*
D17*
X529750Y972160D03*
X529750Y953160D03*
X550750Y962660D03*
D12*
X566819Y941680D03*
X556819Y941680D03*
D16*
X593575Y975050D03*
X600075Y993450D03*
X606575Y993450D03*
X593575Y993450D03*
X600075Y975050D03*
X606575Y975050D03*
D12*
X701040Y887890D03*
X701040Y897890D03*
X599745Y889160D03*
X599745Y899160D03*
X588696Y889160D03*
X588696Y899160D03*
X758995Y949452D03*
X748995Y949452D03*
X704096Y966927D03*
X714096Y966927D03*
X704045Y981710D03*
X714045Y981710D03*
D14*
X569285Y967295D02*
X562285Y967295D01*
X562285Y974295D01*
X569285Y974295D01*
X569285Y967295D01*
X569285Y970145D02*
X562285Y970145D01*
X562285Y972995D02*
X569285Y972995D01*
X569285Y949755D02*
X562285Y949755D01*
X562285Y956755D01*
X569285Y956755D01*
X569285Y949755D01*
X569285Y952605D02*
X562285Y952605D01*
X562285Y955455D02*
X569285Y955455D01*
D12*
X577240Y1019908D03*
X577240Y1009908D03*
D18*
X708539Y949147D03*
X731539Y949147D03*
D12*
X580064Y811886D03*
X590064Y811886D03*
D10*
X1017190Y876240D03*
X1017190Y932240D03*
D11*
X980440Y889240D03*
X980440Y899240D03*
X980440Y909240D03*
X980440Y919240D03*
D10*
X791290Y932240D03*
X791290Y876240D03*
D11*
X828040Y919240D03*
X828040Y909240D03*
X828040Y899240D03*
X828040Y889240D03*
D12*
X962660Y869870D03*
X962660Y859870D03*
X1020064Y856535D03*
X1020064Y846535D03*
X1007008Y846535D03*
X1007008Y856535D03*
X849118Y822554D03*
X839118Y822554D03*
D13*
X942340Y868740D03*
X929640Y868740D03*
X916940Y868740D03*
X904240Y868740D03*
X891540Y868740D03*
X878840Y868740D03*
X866140Y868740D03*
X866140Y812740D03*
X878840Y812740D03*
X891540Y812740D03*
X904240Y812740D03*
X916940Y812740D03*
X929640Y812740D03*
X942340Y812740D03*
D12*
X805815Y852090D03*
X805815Y842090D03*
D14*
X821365Y842455D02*
X828365Y842455D01*
X828365Y835455D01*
X821365Y835455D01*
X821365Y842455D01*
X821365Y838305D02*
X828365Y838305D01*
X828365Y841155D02*
X821365Y841155D01*
X821365Y859995D02*
X828365Y859995D01*
X828365Y852995D01*
X821365Y852995D01*
X821365Y859995D01*
X821365Y855845D02*
X828365Y855845D01*
X828365Y858695D02*
X821365Y858695D01*
D15*
X944240Y929640D03*
X864240Y929640D03*
D12*
X948055Y887890D03*
X948055Y897890D03*
D16*
X958141Y996335D03*
X964641Y1014735D03*
X971141Y1014735D03*
X958141Y1014735D03*
X964641Y996335D03*
X971141Y996335D03*
D17*
X788830Y972160D03*
X788830Y953160D03*
X809830Y962660D03*
D12*
X825899Y941680D03*
X815899Y941680D03*
D16*
X852655Y975050D03*
X859155Y993450D03*
X865655Y993450D03*
X852655Y993450D03*
X859155Y975050D03*
X865655Y975050D03*
D12*
X960120Y887890D03*
X960120Y897890D03*
X858825Y889160D03*
X858825Y899160D03*
X847776Y889160D03*
X847776Y899160D03*
X1018075Y949452D03*
X1008075Y949452D03*
X963176Y966927D03*
X973176Y966927D03*
X963125Y981710D03*
X973125Y981710D03*
D14*
X828365Y967295D02*
X821365Y967295D01*
X821365Y974295D01*
X828365Y974295D01*
X828365Y967295D01*
X828365Y970145D02*
X821365Y970145D01*
X821365Y972995D02*
X828365Y972995D01*
X828365Y949755D02*
X821365Y949755D01*
X821365Y956755D01*
X828365Y956755D01*
X828365Y949755D01*
X828365Y952605D02*
X821365Y952605D01*
X821365Y955455D02*
X828365Y955455D01*
D12*
X836320Y1019908D03*
X836320Y1009908D03*
D18*
X967619Y949147D03*
X990619Y949147D03*
D12*
X839144Y811886D03*
X849144Y811886D03*
D10*
X1276270Y876240D03*
X1276270Y932240D03*
D11*
X1239520Y889240D03*
X1239520Y899240D03*
X1239520Y909240D03*
X1239520Y919240D03*
D10*
X1050370Y932240D03*
X1050370Y876240D03*
D11*
X1087120Y919240D03*
X1087120Y909240D03*
X1087120Y899240D03*
X1087120Y889240D03*
D12*
X1221740Y869870D03*
X1221740Y859870D03*
X1279144Y856535D03*
X1279144Y846535D03*
X1266088Y846535D03*
X1266088Y856535D03*
X1108198Y822554D03*
X1098198Y822554D03*
D13*
X1201420Y868740D03*
X1188720Y868740D03*
X1176020Y868740D03*
X1163320Y868740D03*
X1150620Y868740D03*
X1137920Y868740D03*
X1125220Y868740D03*
X1125220Y812740D03*
X1137920Y812740D03*
X1150620Y812740D03*
X1163320Y812740D03*
X1176020Y812740D03*
X1188720Y812740D03*
X1201420Y812740D03*
D12*
X1064895Y852090D03*
X1064895Y842090D03*
D14*
X1080445Y842455D02*
X1087445Y842455D01*
X1087445Y835455D01*
X1080445Y835455D01*
X1080445Y842455D01*
X1080445Y838305D02*
X1087445Y838305D01*
X1087445Y841155D02*
X1080445Y841155D01*
X1080445Y859995D02*
X1087445Y859995D01*
X1087445Y852995D01*
X1080445Y852995D01*
X1080445Y859995D01*
X1080445Y855845D02*
X1087445Y855845D01*
X1087445Y858695D02*
X1080445Y858695D01*
D15*
X1203320Y929640D03*
X1123320Y929640D03*
D12*
X1207135Y887890D03*
X1207135Y897890D03*
D16*
X1217221Y996335D03*
X1223721Y1014735D03*
X1230221Y1014735D03*
X1217221Y1014735D03*
X1223721Y996335D03*
X1230221Y996335D03*
D17*
X1047910Y972160D03*
X1047910Y953160D03*
X1068910Y962660D03*
D12*
X1084979Y941680D03*
X1074979Y941680D03*
D16*
X1111735Y975050D03*
X1118235Y993450D03*
X1124735Y993450D03*
X1111735Y993450D03*
X1118235Y975050D03*
X1124735Y975050D03*
D12*
X1219200Y887890D03*
X1219200Y897890D03*
X1117905Y889160D03*
X1117905Y899160D03*
X1106856Y889160D03*
X1106856Y899160D03*
X1277155Y949452D03*
X1267155Y949452D03*
X1222256Y966927D03*
X1232256Y966927D03*
X1222205Y981710D03*
X1232205Y981710D03*
D14*
X1087445Y967295D02*
X1080445Y967295D01*
X1080445Y974295D01*
X1087445Y974295D01*
X1087445Y967295D01*
X1087445Y970145D02*
X1080445Y970145D01*
X1080445Y972995D02*
X1087445Y972995D01*
X1087445Y949755D02*
X1080445Y949755D01*
X1080445Y956755D01*
X1087445Y956755D01*
X1087445Y949755D01*
X1087445Y952605D02*
X1080445Y952605D01*
X1080445Y955455D02*
X1087445Y955455D01*
D12*
X1095400Y1019908D03*
X1095400Y1009908D03*
D18*
X1226699Y949147D03*
X1249699Y949147D03*
D12*
X1098224Y811886D03*
X1108224Y811886D03*
D10*
X1535350Y876240D03*
X1535350Y932240D03*
D11*
X1498600Y889240D03*
X1498600Y899240D03*
X1498600Y909240D03*
X1498600Y919240D03*
D10*
X1309450Y932240D03*
X1309450Y876240D03*
D11*
X1346200Y919240D03*
X1346200Y909240D03*
X1346200Y899240D03*
X1346200Y889240D03*
D12*
X1480820Y869870D03*
X1480820Y859870D03*
X1538224Y856535D03*
X1538224Y846535D03*
X1525168Y846535D03*
X1525168Y856535D03*
X1367278Y822554D03*
X1357278Y822554D03*
D13*
X1460500Y868740D03*
X1447800Y868740D03*
X1435100Y868740D03*
X1422400Y868740D03*
X1409700Y868740D03*
X1397000Y868740D03*
X1384300Y868740D03*
X1384300Y812740D03*
X1397000Y812740D03*
X1409700Y812740D03*
X1422400Y812740D03*
X1435100Y812740D03*
X1447800Y812740D03*
X1460500Y812740D03*
D12*
X1323975Y852090D03*
X1323975Y842090D03*
D14*
X1339525Y842455D02*
X1346525Y842455D01*
X1346525Y835455D01*
X1339525Y835455D01*
X1339525Y842455D01*
X1339525Y838305D02*
X1346525Y838305D01*
X1346525Y841155D02*
X1339525Y841155D01*
X1339525Y859995D02*
X1346525Y859995D01*
X1346525Y852995D01*
X1339525Y852995D01*
X1339525Y859995D01*
X1339525Y855845D02*
X1346525Y855845D01*
X1346525Y858695D02*
X1339525Y858695D01*
D15*
X1462400Y929640D03*
X1382400Y929640D03*
D12*
X1466215Y887890D03*
X1466215Y897890D03*
D16*
X1476301Y996335D03*
X1482801Y1014735D03*
X1489301Y1014735D03*
X1476301Y1014735D03*
X1482801Y996335D03*
X1489301Y996335D03*
D17*
X1306990Y972160D03*
X1306990Y953160D03*
X1327990Y962660D03*
D12*
X1344059Y941680D03*
X1334059Y941680D03*
D16*
X1370815Y975050D03*
X1377315Y993450D03*
X1383815Y993450D03*
X1370815Y993450D03*
X1377315Y975050D03*
X1383815Y975050D03*
D12*
X1478280Y887890D03*
X1478280Y897890D03*
X1376985Y889160D03*
X1376985Y899160D03*
X1365936Y889160D03*
X1365936Y899160D03*
X1536235Y949452D03*
X1526235Y949452D03*
X1481336Y966927D03*
X1491336Y966927D03*
X1481285Y981710D03*
X1491285Y981710D03*
D14*
X1346525Y967295D02*
X1339525Y967295D01*
X1339525Y974295D01*
X1346525Y974295D01*
X1346525Y967295D01*
X1346525Y970145D02*
X1339525Y970145D01*
X1339525Y972995D02*
X1346525Y972995D01*
X1346525Y949755D02*
X1339525Y949755D01*
X1339525Y956755D01*
X1346525Y956755D01*
X1346525Y949755D01*
X1346525Y952605D02*
X1339525Y952605D01*
X1339525Y955455D02*
X1346525Y955455D01*
D12*
X1354480Y1019908D03*
X1354480Y1009908D03*
D18*
X1485779Y949147D03*
X1508779Y949147D03*
D12*
X1357304Y811886D03*
X1367304Y811886D03*
M02*
