M48
;GenerationSoftware,Autodesk,EAGLE,9.6.2*%
;CreationDate,2023-12-14T17:13:11Z*%
FMAT,2
ICI,OFF
METRIC,TZ,000.000
T5C0.381
T4C0.800
T3C0.900
T2C1.016
T1C3.302
%
G90
M71
T1
X28448Y48768
X80264Y80264
X22860Y22860
X2540Y22860
X100584Y54356
X80264Y54356
X22860Y2540
X2540Y2540
X48768Y22860
X28448Y22860
X126492Y74676
X106172Y74676
X48768Y2540
X28448Y2540
X74676Y22860
X54356Y22860
X80264Y100584
X152400Y100584
X74676Y2540
X54356Y2540
X100584Y22860
X80264Y22860
X126492Y54356
X106172Y54356
X100584Y2540
X80264Y2540
X126492Y22860
X106172Y22860
X152400Y74676
X132080Y74676
X126492Y2540
X106172Y2540
X152400Y22860
X132080Y22860
X132080Y100584
X100584Y80264
X152400Y2540
X132080Y2540
X22860Y48768
X2540Y48768
X152400Y54356
X132080Y54356
X22860Y28448
X2540Y28448
X48768Y48768
X74676Y54356
X22860Y100584
X2540Y100584
X48768Y28448
X28448Y28448
X74676Y48768
X54356Y48768
X126492Y100584
X106172Y100584
X74676Y28448
X54356Y28448
X100584Y48768
X80264Y48768
X22860Y80264
X2540Y80264
X100584Y28448
X80264Y28448
X126492Y48768
X106172Y48768
X48768Y100584
X28448Y100584
X126492Y28448
X106172Y28448
X152400Y48768
X132080Y48768
X152400Y80264
X132080Y80264
X152400Y28448
X132080Y28448
X22860Y74676
X2540Y74676
X48768Y80264
X28448Y80264
X22860Y54356
X2540Y54356
X48768Y74676
X28448Y74676
X74676Y100584
X54356Y100584
X48768Y54356
X28448Y54356
X74676Y74676
X54356Y74676
X126492Y80264
X106172Y80264
X74676Y80264
X54356Y54356
X100584Y74676
X80264Y74676
X54356Y80264
X100584Y100584
T2
X120142Y53086
X117602Y53086
X115062Y53086
X112522Y53086
X112522Y75946
X115062Y75946
X117602Y75946
X146050Y53086
X143510Y53086
X140970Y53086
X138430Y53086
X138430Y75946
X140970Y75946
X143510Y75946
X16510Y78994
X13970Y78994
X11430Y78994
X8890Y78994
X8890Y101854
X11430Y101854
X13970Y101854
X42418Y78994
X39878Y78994
X37338Y78994
X34798Y78994
X34798Y101854
X37338Y101854
X39878Y101854
X68326Y78994
X65786Y78994
X143510Y101854
X63246Y78994
X60706Y78994
X60706Y101854
X63246Y101854
X65786Y101854
X94234Y78994
X91694Y78994
X89154Y78994
X86614Y78994
X86614Y101854
X89154Y101854
X91694Y101854
X120142Y78994
X117602Y78994
X91694Y24130
X115062Y78994
X112522Y78994
X112522Y101854
X16510Y1270
X13970Y1270
X11430Y1270
X8890Y1270
X115062Y101854
X117602Y101854
X8890Y24130
X11430Y24130
X13970Y24130
X42418Y1270
X39878Y1270
X37338Y1270
X34798Y1270
X146050Y78994
X143510Y78994
X34798Y24130
X37338Y24130
X39878Y24130
X68326Y1270
X65786Y1270
X63246Y1270
X60706Y1270
X140970Y78994
X138430Y78994
X60706Y24130
X63246Y24130
X65786Y24130
X94234Y1270
X91694Y1270
X89154Y1270
X86614Y1270
X138430Y101854
X140970Y101854
X86614Y24130
X89154Y24130
X65786Y50038
X120142Y1270
X117602Y1270
X115062Y1270
X112522Y1270
X112522Y24130
X115062Y24130
X117602Y24130
X146050Y1270
X143510Y1270
X140970Y1270
X138430Y1270
X138430Y24130
X140970Y24130
X143510Y24130
X16510Y27178
X13970Y27178
X11430Y27178
X8890Y27178
X8890Y50038
X11430Y50038
X13970Y50038
X42418Y27178
X39878Y27178
X37338Y27178
X34798Y27178
X34798Y50038
X37338Y50038
X39878Y50038
X68326Y27178
X65786Y27178
X63246Y27178
X60706Y27178
X60706Y50038
X63246Y50038
X94234Y27178
X91694Y27178
X89154Y27178
X86614Y27178
X86614Y50038
X89154Y50038
X91694Y50038
X120142Y27178
X117602Y27178
X115062Y27178
X112522Y27178
X112522Y50038
X115062Y50038
X117602Y50038
X146050Y27178
X143510Y27178
X140970Y27178
X138430Y27178
X138430Y50038
X140970Y50038
X143510Y50038
X16510Y53086
X13970Y53086
X11430Y53086
X8890Y53086
X8890Y75946
X11430Y75946
X13970Y75946
X42418Y53086
X39878Y53086
X37338Y53086
X34798Y53086
X34798Y75946
X37338Y75946
X39878Y75946
X68326Y53086
X65786Y53086
X63246Y53086
X60706Y53086
X60706Y75946
X63246Y75946
X65786Y75946
X94234Y53086
X91694Y53086
X89154Y53086
X86614Y53086
X86614Y75946
X89154Y75946
X91694Y75946
T3
X120089Y97107
X42365Y19383
X49985Y19383
X68273Y19383
X75893Y19383
X94181Y19383
X101801Y19383
X24077Y45291
X42365Y97107
X49985Y97107
X94181Y45291
X101801Y45291
X42365Y71199
X49985Y71199
X120089Y71199
X127709Y71199
X153617Y19383
X68273Y97107
X75893Y97107
X145997Y45291
X153617Y45291
X42365Y45291
X68273Y45291
X75893Y45291
X49985Y45291
X145997Y71199
X94181Y97107
X101801Y97107
X153617Y71199
X68273Y71199
X75893Y71199
X127709Y19383
X120089Y45291
X16457Y71199
X127709Y97107
X24077Y71199
X24077Y19383
X16457Y97107
X24077Y97107
X127709Y45291
X120089Y19383
X94181Y71199
X101801Y71199
X145997Y97107
X153617Y97107
X145997Y19383
X16457Y45291
X16457Y19383
T4
X16600Y17490
X10450Y11340
X42508Y17490
X36358Y11340
X68416Y17490
X62266Y11340
X94324Y17490
X88174Y11340
X120232Y17490
X114082Y11340
X146140Y17490
X139990Y11340
X10450Y37248
X42508Y43398
X36358Y37248
X68416Y43398
X62266Y37248
X94324Y43398
X88174Y37248
X120232Y43398
X114082Y37248
X146140Y43398
X139990Y37248
X16600Y69306
X10450Y63156
X42508Y69306
X36358Y63156
X68416Y69306
X62266Y63156
X94324Y69306
X88174Y63156
X120232Y69306
X114082Y63156
X146140Y69306
X139990Y63156
X10450Y89064
X42508Y95214
X36358Y89064
X68416Y95214
X62266Y89064
X94324Y95214
X88174Y89064
X114082Y89064
X146140Y95214
X139990Y89064
X16600Y95214
X120232Y95214
X16600Y43398
T5
X139487Y20691
X140157Y19779
X134579Y24597
X150630Y19383
X136355Y13053
X144417Y4849
X17704Y30968
X19241Y36195
X4128Y41021
X8247Y32174
X13929Y37445
X10589Y31849
X9274Y33249
X7127Y46596
X10025Y47561
X20074Y50462
X17021Y47287
X24488Y38509
X18941Y39119
X2649Y39649
X6594Y33650
X3874Y34674
X3777Y31351
X14882Y43251
X9606Y43058
X11280Y44465
X18496Y33089
X14630Y32321
X17668Y29667
X11560Y33345
X8047Y34409
X6576Y48438
X10330Y36231
X10439Y30724
X21654Y38100
X3746Y39116
X17582Y35212
X1979Y42695
X5301Y30419
X23660Y32090
X22136Y33322
X10798Y33995
X6761Y31466
X12718Y48760
X12799Y37201
X7877Y31295
X1285Y32382
X19202Y48770
X21312Y44080
X17353Y48372
X15179Y47749
X19916Y43111
X7648Y42967
X3249Y45408
X11427Y38204
X13218Y32365
X9449Y37445
X12294Y32357
X22805Y44243
X20089Y47409
X17516Y43825
X9947Y46599
X10617Y45687
X5039Y50505
X21090Y45291
X6815Y38961
X14877Y30757
X43612Y30968
X45148Y36195
X30035Y41021
X34155Y32174
X39837Y37445
X36497Y31849
X35182Y33249
X33035Y46596
X35933Y47561
X45982Y50462
X42929Y47287
X50396Y38509
X44849Y39119
X28557Y39649
X32502Y33650
X29782Y34674
X29685Y31351
X40790Y43251
X35514Y43058
X37188Y44465
X44404Y33089
X40538Y32321
X43576Y29667
X37468Y33345
X33955Y34409
X32484Y48438
X36238Y36231
X36347Y30724
X47561Y38100
X29654Y39116
X43490Y35212
X27887Y42695
X31209Y30419
X49568Y32090
X48044Y33322
X36706Y33995
X32669Y31466
X38626Y48760
X38707Y37201
X33785Y31295
X27193Y32382
X45110Y48770
X47220Y44080
X43261Y48372
X41087Y47749
X45824Y43111
X33556Y42967
X29157Y45408
X37335Y38204
X39126Y32365
X35357Y37445
X38202Y32357
X48713Y44243
X45997Y47409
X43424Y43825
X35855Y46599
X36525Y45687
X30947Y50505
X46998Y45291
X32723Y38961
X40785Y30757
X69520Y30968
X71057Y36195
X55943Y41021
X60063Y32174
X65745Y37445
X62405Y31849
X61090Y33249
X58943Y46596
X61841Y47561
X71890Y50462
X68837Y47287
X76304Y38509
X70757Y39119
X54465Y39649
X58410Y33650
X55690Y34674
X55593Y31351
X66698Y43251
X61422Y43058
X63096Y44465
X70312Y33089
X66446Y32321
X69484Y29667
X63376Y33345
X59863Y34409
X58392Y48438
X62146Y36231
X62255Y30724
X73470Y38100
X55562Y39116
X69398Y35212
X53795Y42695
X57117Y30419
X75476Y32090
X73952Y33322
X62614Y33995
X58577Y31466
X64534Y48760
X64615Y37201
X59693Y31295
X53101Y32382
X71018Y48770
X73128Y44080
X69169Y48372
X66995Y47749
X71732Y43111
X59464Y42967
X55065Y45408
X63243Y38204
X65034Y32365
X61265Y37445
X64110Y32357
X74621Y44243
X71905Y47409
X69332Y43825
X61763Y46599
X62433Y45687
X56855Y50505
X72906Y45291
X58631Y38961
X66693Y30757
X95428Y30968
X96964Y36195
X81852Y41021
X85971Y32174
X91653Y37445
X88313Y31849
X86998Y33249
X84851Y46596
X87749Y47561
X97798Y50462
X94745Y47287
X102212Y38509
X96665Y39119
X80373Y39649
X84318Y33650
X81598Y34674
X81501Y31351
X92606Y43251
X87330Y43058
X89004Y44465
X96220Y33089
X92354Y32321
X95392Y29667
X89284Y33345
X85771Y34409
X84300Y48438
X88054Y36231
X88163Y30724
X99377Y38100
X81471Y39116
X95306Y35212
X79703Y42695
X83025Y30419
X101384Y32090
X99860Y33322
X88522Y33995
X84485Y31466
X90442Y48760
X90523Y37201
X85601Y31295
X79009Y32382
X96926Y48770
X99036Y44080
X95077Y48372
X92903Y47749
X97640Y43111
X85372Y42967
X80973Y45408
X89151Y38204
X90942Y32365
X87173Y37445
X90018Y32357
X100529Y44243
X97813Y47409
X95240Y43825
X87671Y46599
X88341Y45687
X82763Y50505
X98814Y45291
X84539Y38961
X92601Y30757
X121336Y30968
X122872Y36195
X107759Y41021
X111879Y32174
X117561Y37445
X114221Y31849
X112906Y33249
X110759Y46596
X113657Y47561
X123706Y50462
X120653Y47287
X128120Y38509
X122573Y39119
X106281Y39649
X110226Y33650
X107506Y34674
X107409Y31351
X118514Y43251
X113238Y43058
X114912Y44465
X122128Y33089
X118262Y32321
X121300Y29667
X115192Y33345
X111679Y34409
X110208Y48438
X113962Y36231
X114071Y30724
X125285Y38100
X107378Y39116
X121214Y35212
X105611Y42695
X108933Y30419
X127292Y32090
X125768Y33322
X114430Y33995
X110393Y31466
X116350Y48760
X116431Y37201
X111509Y31295
X104917Y32382
X122834Y48770
X124944Y44080
X120985Y48372
X118811Y47749
X123548Y43111
X111280Y42967
X106881Y45408
X115059Y38204
X116850Y32365
X113081Y37445
X115926Y32357
X126437Y44243
X123721Y47409
X121148Y43825
X113579Y46599
X114249Y45687
X108671Y50505
X124722Y45291
X110447Y38961
X118509Y30757
X147244Y30968
X148781Y36195
X133668Y41021
X137787Y32174
X143469Y37445
X140129Y31849
X138814Y33249
X136667Y46596
X139565Y47561
X149614Y50462
X146561Y47287
X154028Y38509
X148481Y39119
X132189Y39649
X136134Y33650
X133414Y34674
X133317Y31351
X144422Y43251
X139146Y43058
X140820Y44465
X148036Y33089
X144170Y32321
X147208Y29667
X141100Y33345
X137587Y34409
X136116Y48438
X139870Y36231
X139979Y30724
X151194Y38100
X133287Y39116
X147122Y35212
X131519Y42695
X134841Y30419
X153200Y32090
X151676Y33322
X140338Y33995
X136301Y31466
X142258Y48760
X142339Y37201
X137417Y31295
X130825Y32382
X148742Y48770
X150852Y44080
X146893Y48372
X144719Y47749
X149456Y43111
X137188Y42967
X132789Y45408
X140967Y38204
X142758Y32365
X138989Y37445
X141834Y32357
X152345Y44243
X149629Y47409
X147056Y43825
X139487Y46599
X140157Y45687
X134579Y50505
X150630Y45291
X136355Y38961
X144417Y30757
X17704Y56876
X19241Y62103
X4128Y66929
X8247Y58082
X13929Y63353
X10589Y57757
X9274Y59157
X7127Y72504
X10025Y73470
X20074Y76370
X17021Y73195
X24488Y64417
X18941Y65027
X2649Y65557
X6594Y59558
X3874Y60582
X3777Y57259
X14882Y69159
X9606Y68966
X11280Y70373
X18496Y58997
X14630Y58229
X17668Y55575
X11560Y59253
X8047Y60317
X6576Y74346
X10330Y62139
X10439Y56632
X21654Y64008
X3746Y65024
X17582Y61120
X1979Y68603
X5301Y56327
X23660Y57998
X22136Y59230
X10798Y59903
X6761Y57374
X12718Y74668
X12799Y63109
X7877Y57203
X1285Y58290
X19202Y74678
X21312Y69988
X17353Y74280
X15179Y73657
X19916Y69019
X7648Y68875
X3249Y71316
X11427Y64112
X13218Y58273
X9449Y63353
X12294Y58265
X22805Y70151
X20089Y73317
X17516Y69733
X9947Y72507
X10617Y71595
X5039Y76413
X21090Y71199
X6815Y64869
X14877Y56665
X43612Y56876
X45148Y62103
X30035Y66929
X34155Y58082
X39837Y63353
X36497Y57757
X35182Y59157
X33035Y72504
X35933Y73470
X45982Y76370
X42929Y73195
X50396Y64417
X44849Y65027
X28557Y65557
X32502Y59558
X29782Y60582
X29685Y57259
X40790Y69159
X35514Y68966
X37188Y70373
X44404Y58997
X40538Y58229
X43576Y55575
X37468Y59253
X33955Y60317
X32484Y74346
X36238Y62139
X36347Y56632
X47561Y64008
X29654Y65024
X43490Y61120
X27887Y68603
X31209Y56327
X49568Y57998
X48044Y59230
X36706Y59903
X32669Y57374
X38626Y74668
X38707Y63109
X33785Y57203
X27193Y58290
X45110Y74678
X47220Y69988
X43261Y74280
X41087Y73657
X45824Y69019
X33556Y68875
X29157Y71316
X37335Y64112
X39126Y58273
X35357Y63353
X38202Y58265
X48713Y70151
X45997Y73317
X43424Y69733
X35855Y72507
X36525Y71595
X30947Y76413
X46998Y71199
X32723Y64869
X40785Y56665
X69520Y56876
X71057Y62103
X55943Y66929
X60063Y58082
X65745Y63353
X62405Y57757
X61090Y59157
X58943Y72504
X61841Y73470
X71890Y76370
X68837Y73195
X76304Y64417
X70757Y65027
X54465Y65557
X58410Y59558
X55690Y60582
X55593Y57259
X66698Y69159
X61422Y68966
X63096Y70373
X70312Y58997
X66446Y58229
X69484Y55575
X63376Y59253
X59863Y60317
X58392Y74346
X62146Y62139
X62255Y56632
X73470Y64008
X55562Y65024
X69398Y61120
X53795Y68603
X57117Y56327
X75476Y57998
X73952Y59230
X62614Y59903
X58577Y57374
X64534Y74668
X64615Y63109
X59693Y57203
X53101Y58290
X71018Y74678
X73128Y69988
X69169Y74280
X66995Y73657
X71732Y69019
X59464Y68875
X55065Y71316
X63243Y64112
X65034Y58273
X61265Y63353
X64110Y58265
X74621Y70151
X71905Y73317
X69332Y69733
X61763Y72507
X62433Y71595
X56855Y76413
X97640Y17203
X58631Y64869
X66693Y56665
X95428Y56876
X96964Y62103
X81852Y66929
X85971Y58082
X91653Y63353
X88313Y57757
X86998Y59157
X84851Y72504
X87749Y73470
X97798Y76370
X94745Y73195
X102212Y64417
X96665Y65027
X80373Y65557
X84318Y59558
X81598Y60582
X81501Y57259
X92606Y69159
X87330Y68966
X89004Y70373
X96220Y58997
X92354Y58229
X95392Y55575
X89284Y59253
X85771Y60317
X84300Y74346
X88054Y62139
X88163Y56632
X99377Y64008
X81471Y65024
X95306Y61120
X79703Y68603
X83025Y56327
X101384Y57998
X99860Y59230
X88522Y59903
X84485Y57374
X90442Y74668
X90523Y63109
X85601Y57203
X79009Y58290
X96926Y74678
X99036Y69988
X95077Y74280
X92903Y73657
X97640Y69019
X85372Y68875
X80973Y71316
X89151Y64112
X90942Y58273
X87173Y63353
X90018Y58265
X100529Y70151
X97813Y73317
X95240Y69733
X87671Y72507
X88341Y71595
X82763Y76413
X98814Y71199
X84539Y64869
X92601Y56665
X121336Y56876
X122872Y62103
X107759Y66929
X111879Y58082
X117561Y63353
X114221Y57757
X112906Y59157
X110759Y72504
X113657Y73470
X123706Y76370
X120653Y73195
X128120Y64417
X122573Y65027
X106281Y65557
X110226Y59558
X107506Y60582
X107409Y57259
X118514Y69159
X113238Y68966
X114912Y70373
X122128Y58997
X118262Y58229
X121300Y55575
X115192Y59253
X111679Y60317
X110208Y74346
X113962Y62139
X114071Y56632
X125285Y64008
X107378Y65024
X121214Y61120
X105611Y68603
X108933Y56327
X127292Y57998
X125768Y59230
X114430Y59903
X110393Y57374
X116350Y74668
X116431Y63109
X111509Y57203
X104917Y58290
X122834Y74678
X124944Y69988
X120985Y74280
X118811Y73657
X123548Y69019
X111280Y68875
X106881Y71316
X115059Y64112
X116850Y58273
X113081Y63353
X115926Y58265
X126437Y70151
X123721Y73317
X121148Y69733
X113579Y72507
X114249Y71595
X108671Y76413
X124722Y71199
X110447Y64869
X118509Y56665
X147244Y56876
X148781Y62103
X133668Y66929
X137787Y58082
X143469Y63353
X140129Y57757
X138814Y59157
X136667Y72504
X139565Y73470
X149614Y76370
X146561Y73195
X154028Y64417
X148481Y65027
X132189Y65557
X136134Y59558
X133414Y60582
X133317Y57259
X144422Y69159
X139146Y68966
X140820Y70373
X148036Y58997
X144170Y58229
X147208Y55575
X141100Y59253
X137587Y60317
X136116Y74346
X139870Y62139
X139979Y56632
X151194Y64008
X133287Y65024
X147122Y61120
X131519Y68603
X134841Y56327
X153200Y57998
X151676Y59230
X140338Y59903
X136301Y57374
X142258Y74668
X142339Y63109
X137417Y57203
X130825Y58290
X148742Y74678
X150852Y69988
X146893Y74280
X144719Y73657
X149456Y69019
X137188Y68875
X132789Y71316
X140967Y64112
X142758Y58273
X138989Y63353
X141834Y58265
X152345Y70151
X149629Y73317
X147056Y69733
X139487Y72507
X140157Y71595
X134579Y76413
X150630Y71199
X136355Y64869
X144417Y56665
X17704Y82784
X19241Y88011
X4128Y92837
X8247Y83990
X13929Y89261
X10589Y83665
X9274Y85065
X7127Y98412
X10025Y99377
X20074Y102278
X17021Y99103
X24488Y90325
X18941Y90935
X2649Y91465
X6594Y85466
X3874Y86490
X3777Y83167
X14882Y95067
X9606Y94874
X11280Y96281
X18496Y84905
X14630Y84138
X17668Y81483
X11560Y85161
X8047Y86225
X6576Y100254
X10330Y88047
X10439Y82540
X21654Y89916
X3746Y90932
X17582Y87028
X1979Y94511
X5301Y82235
X23660Y83906
X22136Y85138
X10798Y85811
X6761Y83282
X12718Y100576
X12799Y89017
X7877Y83111
X1285Y84198
X19202Y100586
X21312Y95896
X17353Y100188
X15179Y99565
X19916Y94927
X7648Y94783
X3249Y97224
X11427Y90020
X13218Y84181
X9449Y89261
X12294Y84173
X22805Y96059
X20089Y99225
X17516Y95641
X9947Y98415
X10617Y97503
X5039Y102321
X21090Y97107
X6815Y90777
X14877Y82573
X43612Y82784
X45148Y88011
X30035Y92837
X34155Y83990
X39837Y89261
X36497Y83665
X35182Y85065
X33035Y98412
X35933Y99377
X45982Y102278
X42929Y99103
X50396Y90325
X44849Y90935
X28557Y91465
X32502Y85466
X29782Y86490
X29685Y83167
X40790Y95067
X35514Y94874
X37188Y96281
X44404Y84905
X40538Y84138
X43576Y81483
X37468Y85161
X33955Y86225
X32484Y100254
X36238Y88047
X36347Y82540
X47561Y89916
X29654Y90932
X43490Y87028
X27887Y94511
X31209Y82235
X49568Y83906
X48044Y85138
X36706Y85811
X32669Y83282
X38626Y100576
X38707Y89017
X33785Y83111
X27193Y84198
X45110Y100586
X47220Y95896
X43261Y100188
X41087Y99565
X45824Y94927
X33556Y94783
X29157Y97224
X37335Y90020
X39126Y84181
X35357Y89261
X38202Y84173
X48713Y96059
X45997Y99225
X43424Y95641
X35855Y98415
X36525Y97503
X30947Y102321
X46998Y97107
X32723Y90777
X40785Y82573
X69520Y82784
X71057Y88011
X55943Y92837
X60063Y83990
X65745Y89261
X62405Y83665
X61090Y85065
X58943Y98412
X61841Y99377
X71890Y102278
X68837Y99103
X76304Y90325
X70757Y90935
X54465Y91465
X58410Y85466
X55690Y86490
X55593Y83167
X66698Y95067
X61422Y94874
X63096Y96281
X70312Y84905
X66446Y84138
X69484Y81483
X63376Y85161
X59863Y86225
X58392Y100254
X62146Y88047
X62255Y82540
X73470Y89916
X55562Y90932
X69398Y87028
X53795Y94511
X57117Y82235
X75476Y83906
X73952Y85138
X62614Y85811
X58577Y83282
X64534Y100576
X64615Y89017
X59693Y83111
X53101Y84198
X71018Y100586
X73128Y95896
X69169Y100188
X66995Y99565
X71732Y94927
X59464Y94783
X55065Y97224
X63243Y90020
X65034Y84181
X61265Y89261
X64110Y84173
X74621Y96059
X71905Y99225
X69332Y95641
X61763Y98415
X62433Y97503
X56855Y102321
X72906Y97107
X58631Y90777
X66693Y82573
X95428Y82784
X96964Y88011
X81852Y92837
X85971Y83990
X91653Y89261
X88313Y83665
X86998Y85065
X84851Y98412
X87749Y99377
X97798Y102278
X94745Y99103
X102212Y90325
X96665Y90935
X80373Y91465
X84318Y85466
X81598Y86490
X81501Y83167
X92606Y95067
X87330Y94874
X89004Y96281
X96220Y84905
X92354Y84138
X95392Y81483
X89284Y85161
X85771Y86225
X84300Y100254
X88054Y88047
X88163Y82540
X99377Y89916
X81471Y90932
X95306Y87028
X79703Y94511
X83025Y82235
X101384Y83906
X99860Y85138
X88522Y85811
X84485Y83282
X90442Y100576
X90523Y89017
X85601Y83111
X79009Y84198
X96926Y100586
X99036Y95896
X95077Y100188
X92903Y99565
X97640Y94927
X85372Y94783
X80973Y97224
X89151Y90020
X90942Y84181
X87173Y89261
X90018Y84173
X100529Y96059
X97813Y99225
X95240Y95641
X87671Y98415
X88341Y97503
X82763Y102321
X98814Y97107
X84539Y90777
X92601Y82573
X121336Y82784
X122872Y88011
X107759Y92837
X111879Y83990
X117561Y89261
X114221Y83665
X112906Y85065
X110759Y98412
X113657Y99377
X123706Y102278
X120653Y99103
X128120Y90325
X122573Y90935
X106281Y91465
X110226Y85466
X107506Y86490
X107409Y83167
X118514Y95067
X113238Y94874
X114912Y96281
X122128Y84905
X118262Y84138
X121300Y81483
X115192Y85161
X111679Y86225
X17704Y5060
X113962Y88047
X114071Y82540
X125285Y89916
X107378Y90932
X121214Y87028
X105611Y94511
X108933Y82235
X127292Y83906
X125768Y85138
X114430Y85811
X110393Y83282
X116350Y100576
X116431Y89017
X111509Y83111
X104917Y84198
X122834Y100586
X124944Y95896
X120985Y100188
X118811Y99565
X123548Y94927
X111280Y94783
X106881Y97224
X115059Y90020
X116850Y84181
X113081Y89261
X115926Y84173
X126437Y96059
X123721Y99225
X121148Y95641
X113579Y98415
X114249Y97503
X108671Y102321
X124722Y97107
X110447Y90777
X118509Y82573
X147244Y82784
X148781Y88011
X133668Y92837
X137787Y83990
X143469Y89261
X140129Y83665
X138814Y85065
X136667Y98412
X139565Y99377
X149614Y102278
X146561Y99103
X154028Y90325
X148481Y90935
X132189Y91465
X136134Y85466
X133414Y86490
X133317Y83167
X144422Y95067
X139146Y94874
X140820Y96281
X148036Y84905
X144170Y84138
X147208Y81483
X141100Y85161
X137587Y86225
X136116Y100254
X139870Y88047
X139979Y82540
X151194Y89916
X133287Y90932
X147122Y87028
X131519Y94511
X134841Y82235
X153200Y83906
X151676Y85138
X140338Y85811
X136301Y83282
X142258Y100576
X142339Y89017
X137417Y83111
X130825Y84198
X148742Y100586
X150852Y95896
X146893Y100188
X144719Y99565
X149456Y94927
X137188Y94783
X132789Y97224
X140967Y90020
X142758Y84181
X138989Y89261
X141834Y84173
X152345Y96059
X149629Y99225
X147056Y95641
X139487Y98415
X140157Y97503
X134579Y102321
X150630Y97107
X136355Y90777
X144417Y82573
X19241Y10287
X4128Y15113
X8247Y6266
X13929Y11537
X10589Y5941
X9274Y7341
X7127Y20688
X10025Y21654
X20074Y24554
X17021Y21379
X24488Y12601
X18941Y13211
X2649Y13741
X6594Y7742
X3874Y8766
X3777Y5443
X14882Y17343
X9606Y17150
X11280Y18557
X18496Y7181
X14630Y6413
X17668Y3759
X11560Y7437
X8047Y8501
X6576Y22530
X10330Y10323
X10439Y4816
X21654Y12192
X3746Y13208
X17582Y9304
X1979Y16787
X5301Y4511
X23660Y6182
X22136Y7414
X10798Y8087
X6761Y5558
X12718Y22852
X12799Y11293
X7877Y5387
X1285Y6474
X19202Y22862
X21312Y18172
X17353Y22464
X15179Y21841
X19916Y17203
X7648Y17059
X3249Y19500
X11427Y12296
X13218Y6457
X9449Y11537
X12294Y6449
X22805Y18335
X20089Y21501
X17516Y17917
X9947Y20691
X10617Y19779
X5039Y24597
X21090Y19383
X6815Y13053
X14877Y4849
X43612Y5060
X45148Y10287
X30035Y15113
X34155Y6266
X39837Y11537
X36497Y5941
X35182Y7341
X33035Y20688
X35933Y21654
X45982Y24554
X42929Y21379
X50396Y12601
X44849Y13211
X28557Y13741
X32502Y7742
X29782Y8766
X29685Y5443
X40790Y17343
X35514Y17150
X37188Y18557
X44404Y7181
X40538Y6413
X43576Y3759
X37468Y7437
X33955Y8501
X32484Y22530
X36238Y10323
X36347Y4816
X47561Y12192
X29654Y13208
X43490Y9304
X27887Y16787
X31209Y4511
X49568Y6182
X48044Y7414
X36706Y8087
X32669Y5558
X38626Y22852
X38707Y11293
X33785Y5387
X27193Y6474
X45110Y22862
X47220Y18172
X43261Y22464
X41087Y21841
X45824Y17203
X33556Y17059
X29157Y19500
X37335Y12296
X39126Y6457
X35357Y11537
X38202Y6449
X48713Y18335
X45997Y21501
X43424Y17917
X35855Y20691
X36525Y19779
X30947Y24597
X46998Y19383
X32723Y13053
X40785Y4849
X69520Y5060
X71057Y10287
X55943Y15113
X60063Y6266
X65745Y11537
X62405Y5941
X61090Y7341
X58943Y20688
X61841Y21654
X71890Y24554
X72906Y71199
X68837Y21379
X76304Y12601
X70757Y13211
X54465Y13741
X58410Y7742
X55690Y8766
X55593Y5443
X66698Y17343
X61422Y17150
X63096Y18557
X70312Y7181
X66446Y6413
X69484Y3759
X63376Y7437
X59863Y8501
X58392Y22530
X62146Y10323
X62255Y4816
X73470Y12192
X55562Y13208
X69398Y9304
X53795Y16787
X57117Y4511
X75476Y6182
X73952Y7414
X62614Y8087
X58577Y5558
X64534Y22852
X64615Y11293
X59693Y5387
X53101Y6474
X71018Y22862
X73128Y18172
X69169Y22464
X66995Y21841
X71732Y17203
X59464Y17059
X55065Y19500
X63243Y12296
X65034Y6457
X61265Y11537
X64110Y6449
X74621Y18335
X71905Y21501
X69332Y17917
X61763Y20691
X62433Y19779
X56855Y24597
X72906Y19383
X58631Y13053
X66693Y4849
X95428Y5060
X96964Y10287
X81852Y15113
X85971Y6266
X91653Y11537
X88313Y5941
X86998Y7341
X84851Y20688
X87749Y21654
X97798Y24554
X94745Y21379
X102212Y12601
X96665Y13211
X80373Y13741
X84318Y7742
X81598Y8766
X81501Y5443
X92606Y17343
X87330Y17150
X89004Y18557
X96220Y7181
X92354Y6413
X95392Y3759
X89284Y7437
X85771Y8501
X84300Y22530
X88054Y10323
X88163Y4816
X99377Y12192
X81471Y13208
X95306Y9304
X79703Y16787
X83025Y4511
X101384Y6182
X99860Y7414
X88522Y8087
X84485Y5558
X90442Y22852
X90523Y11293
X85601Y5387
X79009Y6474
X96926Y22862
X99036Y18172
X95077Y22464
X92903Y21841
X85372Y17059
X80973Y19500
X89151Y12296
X90942Y6457
X87173Y11537
X90018Y6449
X100529Y18335
X97813Y21501
X95240Y17917
X87671Y20691
X88341Y19779
X82763Y24597
X98814Y19383
X84539Y13053
X92601Y4849
X121336Y5060
X122872Y10287
X107759Y15113
X111879Y6266
X117561Y11537
X114221Y5941
X112906Y7341
X110759Y20688
X113657Y21654
X123706Y24554
X120653Y21379
X128120Y12601
X122573Y13211
X106281Y13741
X110226Y7742
X107506Y8766
X107409Y5443
X118514Y17343
X113238Y17150
X114912Y18557
X122128Y7181
X118262Y6413
X121300Y3759
X115192Y7437
X111679Y8501
X110208Y22530
X113962Y10323
X114071Y4816
X125285Y12192
X107378Y13208
X121214Y9304
X105611Y16787
X108933Y4511
X127292Y6182
X125768Y7414
X114430Y8087
X110393Y5558
X116350Y22852
X116431Y11293
X111509Y5387
X104917Y6474
X122834Y22862
X124944Y18172
X120985Y22464
X118811Y21841
X123548Y17203
X111280Y17059
X106881Y19500
X115059Y12296
X116850Y6457
X113081Y11537
X115926Y6449
X126437Y18335
X123721Y21501
X121148Y17917
X113579Y20691
X114249Y19779
X108671Y24597
X124722Y19383
X110447Y13053
X118509Y4849
X147244Y5060
X148781Y10287
X133668Y15113
X137787Y6266
X143469Y11537
X140129Y5941
X138814Y7341
X136667Y20688
X139565Y21654
X149614Y24554
X146561Y21379
X154028Y12601
X148481Y13211
X132189Y13741
X136134Y7742
X133414Y8766
X133317Y5443
X144422Y17343
X139146Y17150
X140820Y18557
X148036Y7181
X144170Y6413
X147208Y3759
X141100Y7437
X137587Y8501
X136116Y22530
X139870Y10323
X139979Y4816
X151194Y12192
X133287Y13208
X147122Y9304
X131519Y16787
X134841Y4511
X153200Y6182
X151676Y7414
X140338Y8087
X136301Y5558
X142258Y22852
X142339Y11293
X137417Y5387
X130825Y6474
X148742Y22862
X150852Y18172
X146893Y22464
X144719Y21841
X149456Y17203
X137188Y17059
X132789Y19500
X140967Y12296
X142758Y6457
X138989Y11537
X141834Y6449
X152345Y18335
X149629Y21501
X147056Y17917
X110208Y100254
M30